<svg xmlns="http://www.w3.org/2000/svg" viewBox="0 0 500 500"><g id="freepik--background-complete--inject-109"><rect x="432.85" y="197.03" width="48.65" height="12.87" style="fill:#ebebeb"></rect><path d="M460.93,223.46a2.07,2.07,0,0,1,0-.23l0-.66c0-.61,0-1.45,0-2.53,0-2.23-.05-5.42-.09-9.45l.15.15-48.65.1.25-.25h0v6.52c0,2.15,0,4.26,0,6.33l-.24-.24,34.67.11,10.24.07,2.76,0,.73,0h.25s-.07,0-.22,0H460l-2.71,0-10.18.06-34.84.11H412v-.25c0-2.07,0-4.18,0-6.33v-6.52h0l.25-.25,48.65.1h.15v.15c0,4.07-.06,7.29-.08,9.53,0,1.07,0,1.91,0,2.5,0,.26,0,.47,0,.64S460.94,223.47,460.93,223.46Z" style="fill:#e0e0e0"></path><rect x="77.93" y="42.71" width="48.65" height="12.87" style="fill:#ebebeb"></rect><path d="M106,69.14s0-.09,0-.24l0-.66c0-.6,0-1.45,0-2.53,0-2.22,0-5.42-.08-9.44l.15.15-48.65.09c.11-.11-.25.25.25-.24h0v3.27c0,1.09,0,2.17,0,3.25v6.33l-.24-.24L92,69l10.23.06,2.77,0h.72a1.33,1.33,0,0,1,.26,0h-.22l-.7,0-2.71,0-10.18.07-34.84.11h-.24v-.24q0-3.11,0-6.33V56.29h0l.25-.25,48.65.1h.15v.15c0,4.06-.06,7.29-.08,9.53,0,1.07,0,1.9,0,2.5,0,.26,0,.47,0,.63A.85.85,0,0,1,106,69.14Z" style="fill:#e0e0e0"></path><rect x="61.05" y="405.76" width="48.65" height="12.87" style="fill:#ebebeb"></rect><path d="M89.13,432.19a1,1,0,0,1,0-.23v-.66c0-.61,0-1.45,0-2.53,0-2.23,0-5.42-.08-9.45l.15.15-48.65.1c.11-.11-.25.25.24-.25h0v12.85l-.24-.24,34.67.11,10.23.07,2.77,0,.72,0h.26l-.23,0h-.69l-2.71,0-10.18.06-34.84.11h-.25v-13.1h0l.25-.25,48.65.1h.15v.15c0,4.07-.06,7.29-.08,9.53,0,1.07,0,1.91,0,2.5,0,.26,0,.47,0,.64A1.23,1.23,0,0,1,89.13,432.19Z" style="fill:#e0e0e0"></path><path d="M416.32,62.49a2.07,2.07,0,0,1,0-.23l0-.66c0-.6,0-1.45,0-2.53,0-2.22,0-5.42-.08-9.45l.15.15-48.65.1.25-.25h0v6.53c0,2.15,0,4.27,0,6.33l-.24-.24,34.67.11,10.23.07,2.77,0,.73,0h.25s-.07,0-.22,0l-.7,0-2.71,0-10.18.07-34.84.11h-.24v-.25c0-2.06,0-4.18,0-6.33V49.63h0c.5-.49.14-.13.25-.24l48.65.09h.15v.15c0,4.07-.06,7.29-.08,9.54,0,1.07,0,1.9,0,2.5,0,.26,0,.46,0,.63S416.33,62.5,416.32,62.49Z" style="fill:#e0e0e0"></path><path d="M422.92,49.62a1.22,1.22,0,0,1,0-.24c0-.19,0-.41,0-.68,0-.64,0-1.5,0-2.58,0-2.26-.06-5.45-.1-9.37l.18.18L393.69,37c-.22.22.3-.3.24-.25h0v6.62q0,3.24,0,6.24l-.23-.23,20.91.11,6.09.07,1.64,0,.59,0a3.28,3.28,0,0,1-.53,0l-1.6,0-6,.07-21.07.11h-.24v-.24c0-2,0-4.08,0-6.24V36.76h0l.25-.25,29.23.07h.18v.17c0,4-.08,7.19-.1,9.47,0,1.07,0,1.92,0,2.55S422.93,49.64,422.92,49.62Z" style="fill:#e0e0e0"></path><path d="M68.48,264.22a2.07,2.07,0,0,1,0-.23l0-.66c0-.61,0-1.45,0-2.53,0-2.23,0-5.42-.08-9.45l.15.15-48.65.1.25-.25h0v6.53q0,3.23,0,6.33l-.24-.24,34.67.11,10.23.07,2.77,0,.73,0h.25s-.07,0-.22,0h-.7l-2.71,0-10.18.07-34.84.11h-.24v-.25c0-2.07,0-4.18,0-6.33v-6.53h0c.5-.49.14-.14.25-.25l48.65.1h.15v.15c0,4.07-.06,7.29-.08,9.54,0,1.06,0,1.9,0,2.49V264C68.49,264.16,68.49,264.23,68.48,264.22Z" style="fill:#e0e0e0"></path><path d="M75.08,251.35a1.22,1.22,0,0,1,0-.24c0-.19,0-.41,0-.68,0-.64,0-1.5,0-2.59,0-2.25-.06-5.44-.1-9.36l.18.18-29.23.07c-.22.22.3-.3.24-.25h0v6.62c0,2.15,0,4.24,0,6.24l-.23-.23,20.91.11,6.09.06,1.64,0,.59,0a3.28,3.28,0,0,1-.53,0l-1.6,0-6,.07-21.07.11h-.24v-.24c0-2,0-4.09,0-6.24v-6.62h0l.25-.25,29.23.07h.18v.18c0,4-.08,7.19-.1,9.47,0,1.07,0,1.92,0,2.54S75.09,251.36,75.08,251.35Z" style="fill:#e0e0e0"></path><path d="M414.41,428.29a1,1,0,0,1,0-.23c0-.17,0-.39,0-.66,0-.61,0-1.45,0-2.53,0-2.23,0-5.42-.08-9.45l.15.15-48.65.1c.11-.11-.25.25.24-.25h0v12.86l-.25-.24,34.68.11,10.23.07,2.77,0,.72,0h.26l-.23,0-.69,0-2.72,0-10.18.07-34.84.11h-.24V415.43h0l.25-.25,48.65.1h.15v.15c0,4.07-.07,7.29-.09,9.54,0,1.06,0,1.9,0,2.5,0,.26,0,.46,0,.63A1.23,1.23,0,0,1,414.41,428.29Z" style="fill:#e0e0e0"></path><path d="M421,415.42s0-.09,0-.24,0-.41,0-.68c0-.64,0-1.5-.05-2.58,0-2.26-.05-5.45-.09-9.37l.17.18-29.23.07.25-.25h0v6.62c0,2.15,0,4.24,0,6.24l-.24-.23,20.91.11,6.09.06,1.65,0,.58,0a3.28,3.28,0,0,1-.53,0l-1.59,0-6,.07-21.07.11h-.23v-.24c0-2,0-4.09,0-6.24,0-1.07,0-2.17,0-3.27v-3.35h0c0,.06.47-.47.25-.25l29.23.07h.18v.18c0,4-.07,7.19-.09,9.47,0,1.07,0,1.92,0,2.54A4.76,4.76,0,0,1,421,415.42Z" style="fill:#e0e0e0"></path><path d="M283.36,44.29a1,1,0,0,1,0-.23c0-.18,0-.39,0-.66,0-.61,0-1.46,0-2.54,0-2.22-.05-5.41-.09-9.44l.16.16-48.65.1c.12-.11-.26.26.26-.26h0V38q0,3.23,0,6.33l-.25-.25,34.66.11,10.24.08,2.77,0,.72,0h.26s-.07,0-.22,0l-.7,0-2.71,0-10.18.07-34.84.12h-.26V31.43h0l.26-.26,48.65.1h.16v.16c0,4.07-.07,7.29-.09,9.54,0,1.06,0,1.9,0,2.5,0,.25,0,.46,0,.63S283.37,44.3,283.36,44.29Z" style="fill:#ebebeb"></path><path d="M481.41,320.15a2.07,2.07,0,0,1,0-.23l0-.67c0-.6,0-1.45,0-2.53,0-2.22,0-5.42-.09-9.44l.16.16-48.65.1.26-.26h0v6.52q0,3.23,0,6.33l-.25-.25,34.67.11,10.23.07,2.77,0h.72l.26,0s-.07,0-.22,0h-.7l-2.71,0-10.18.07-34.84.12h-.26V307.3h0l.26-.26,48.65.1h.16v.16c0,4.06-.07,7.29-.09,9.54,0,1.06,0,1.89,0,2.49V320C481.42,320.09,481.42,320.16,481.41,320.15Z" style="fill:#ebebeb"></path></g><g id="freepik--Floor--inject-109"><path d="M18.19,472.23c0-.15,103.79-.26,231.8-.26s231.82.11,231.82.26-103.77.26-231.82.26S18.19,472.37,18.19,472.23Z" style="fill:#263238"></path></g><g id="freepik--Device--inject-109"><rect x="147.09" y="80.42" width="197.86" height="391.82" rx="25.34" style="fill:#455a64"></rect><rect x="53.23" y="180.51" width="385.59" height="191.63" rx="22.23" transform="translate(522.35 30.3) rotate(90)" style="fill:#263238"></rect><path d="M231.82,95.88a2.2,2.2,0,1,1,0-4.4h28.29a2.2,2.2,0,0,1,0,4.4Z" style="fill:#455a64"></path><path d="M216.64,95.88a2.2,2.2,0,1,1,2.2-2.2A2.21,2.21,0,0,1,216.64,95.88Z" style="fill:#455a64"></path><path d="M224.74,95.88a2.2,2.2,0,1,1,2.2-2.2A2.21,2.21,0,0,1,224.74,95.88Z" style="fill:#455a64"></path><path d="M275.41,95.88a2.2,2.2,0,1,1,2.2-2.2A2.21,2.21,0,0,1,275.41,95.88Z" style="fill:#455a64"></path><path d="M267.31,95.88a2.2,2.2,0,1,1,2.2-2.2A2.21,2.21,0,0,1,267.31,95.88Z" style="fill:#455a64"></path><path d="M320.38,86.18H292.6a9.89,9.89,0,0,0-9.5,7.13l-.47,1.62a10.58,10.58,0,0,1-10.16,7.63H219.58a10.58,10.58,0,0,1-10.16-7.63L209,93.31a9.89,9.89,0,0,0-9.5-7.13H174.24a19.57,19.57,0,0,0-19.57,19.57V445.51a18.41,18.41,0,0,0,18.41,18.41H320.71a16.67,16.67,0,0,0,16.67-16.67V103.18A17,17,0,0,0,320.38,86.18Z" style="fill:#fafafa"></path><path d="M346,165.58h.23a0,0,0,0,1,0,0v45a0,0,0,0,1,0,0H346a1.07,1.07,0,0,1-1.07-1.07v-42.9A1.07,1.07,0,0,1,346,165.58Z" transform="translate(691.21 376.19) rotate(180)" style="fill:#455a64"></path><path d="M146.81,193.33h.28a0,0,0,0,1,0,0v28.51a0,0,0,0,1,0,0h-.28a1.07,1.07,0,0,1-1.07-1.07V194.4A1.07,1.07,0,0,1,146.81,193.33Z" style="fill:#455a64"></path><path d="M146.81,156.08h.28a0,0,0,0,1,0,0v28.51a0,0,0,0,1,0,0h-.28a1.07,1.07,0,0,1-1.07-1.07V157.15A1.07,1.07,0,0,1,146.81,156.08Z" style="fill:#455a64"></path><path d="M146.88,128.12h.21a0,0,0,0,1,0,0v13.26a0,0,0,0,1,0,0h-.21a.95.95,0,0,1-.95-.95V129.07a.95.95,0,0,1,.95-.95Z" style="fill:#455a64"></path><rect x="293.03" y="98.93" width="1.36" height="1.91" style="fill:#263238"></rect><rect x="295.24" y="98.08" width="1.36" height="2.75" style="fill:#263238"></rect><rect x="297.45" y="97.44" width="1.36" height="3.39" style="fill:#263238"></rect><rect x="299.66" y="96.21" width="1.36" height="4.62" style="fill:#263238"></rect><path d="M321.09,100.93h-6.83a.49.49,0,0,1-.49-.49V97.05a.49.49,0,0,1,.49-.49h6.83a.11.11,0,0,1,.08,0,.12.12,0,0,1,0,.09V97.8h.73a.13.13,0,0,1,.13.12v1.64a.12.12,0,0,1-.13.12h-.73v1.12A.13.13,0,0,1,321.09,100.93ZM321,96.81h-6.7a.24.24,0,0,0-.24.24v3.39a.24.24,0,0,0,.24.24H321V99.56a.13.13,0,0,1,.13-.13h.73V98.05h-.73a.13.13,0,0,1-.13-.13Z" style="fill:#263238"></path><polygon points="314.58 100.12 314.58 97.36 320.4 97.36 320.4 98.61 320.4 98.88 320.4 100.12 314.58 100.12" style="fill:#263238"></polygon><path d="M307.53,100.67a.5.5,0,0,0-.5-.5.5.5,0,1,0,.5.5Z" style="fill:#263238"></path><path d="M305.33,99.46l.63.64a1.53,1.53,0,0,1,1.07-.44,1.51,1.51,0,0,1,1.06.44l.64-.64a2.43,2.43,0,0,0-1.7-.7A2.39,2.39,0,0,0,305.33,99.46Z" style="fill:#263238"></path><path d="M307,97.34a3.84,3.84,0,0,0-2.71,1.12l.64.64a2.91,2.91,0,0,1,4.13,0l.64-.64A3.82,3.82,0,0,0,307,97.34Z" style="fill:#263238"></path><path d="M303.29,97.43l.64.63a4.39,4.39,0,0,1,6.2,0l.64-.63a5.29,5.29,0,0,0-7.48,0Z" style="fill:#263238"></path><path d="M310,153.43H186a12.34,12.34,0,0,1-12.34-12.33h0A12.34,12.34,0,0,1,186,128.77H310a12.33,12.33,0,0,1,12.33,12.33h0A12.33,12.33,0,0,1,310,153.43Z" style="fill:#e0e0e0"></path><path d="M306.77,145.8a4.71,4.71,0,1,1,4.71-4.7A4.71,4.71,0,0,1,306.77,145.8Zm0-8.47a3.77,3.77,0,1,0,3.77,3.77A3.77,3.77,0,0,0,306.77,137.33Z" style="fill:#263238"></path><path d="M313.09,147a.45.45,0,0,1-.31-.11l-3.1-2.71a.47.47,0,0,1,0-.66.46.46,0,0,1,.66,0l3.1,2.71a.47.47,0,0,1,0,.66A.44.44,0,0,1,313.09,147Z" style="fill:#263238"></path><path d="M232.69,388.49a4,4,0,1,1-4-4A4,4,0,0,1,232.69,388.49Z" style="fill:#ebebeb"></path><path d="M246,388.49a4,4,0,1,1-4-4A4,4,0,0,1,246,388.49Z" style="fill:#e0e0e0"></path><circle cx="255.33" cy="388.49" r="3.98" style="fill:#e0e0e0"></circle><path d="M272.62,388.49a4,4,0,1,1-4-4A4,4,0,0,1,272.62,388.49Z" style="fill:#e0e0e0"></path><rect x="171.97" y="408.29" width="32.08" height="32.08" rx="9.07" style="fill:#FF725E"></rect><rect x="211.96" y="407.99" width="32.08" height="32.08" rx="9.61" style="fill:#e0e0e0"></rect><rect x="251.95" y="407.69" width="32.08" height="32.08" rx="10.16" style="fill:#455a64"></rect><rect x="291.93" y="408.29" width="32.08" height="32.08" rx="10.28" style="fill:#263238"></rect><path d="M260.51,431.52l1.17-4.36a8,8,0,0,1-1-3.89,8.08,8.08,0,1,1,4.22,7.07Zm4.6-2.81.27.17a6.53,6.53,0,1,0-3.19-5.61,6.51,6.51,0,0,0,.95,3.38l.17.28-.65,2.44Z" style="fill:#fff"></path><path d="M271.62,424.44a1.34,1.34,0,0,0-1.15-.26c-.3.12-.49.59-.69.83a.29.29,0,0,1-.37.08,5.24,5.24,0,0,1-2.61-2.24.32.32,0,0,1,0-.43,1.73,1.73,0,0,0,.48-.77,1.7,1.7,0,0,0-.21-.91,2.16,2.16,0,0,0-.68-1,.91.91,0,0,0-1,.15,2,2,0,0,0-.7,1.6,2.1,2.1,0,0,0,.06.51,4.55,4.55,0,0,0,.49,1.13q.24.4.51.78A8.23,8.23,0,0,0,268,426a7,7,0,0,0,1.38.65,3.08,3.08,0,0,0,1.61.26,2,2,0,0,0,1.46-1.09,1,1,0,0,0,.07-.55C272.44,424.85,271.93,424.62,271.62,424.44Z" style="fill:#fff;fill-rule:evenodd"></path><path d="M193.67,426.26a2.54,2.54,0,0,0-2.19-.49c-.57.23-.93,1.12-1.3,1.57a.54.54,0,0,1-.7.16,9.88,9.88,0,0,1-4.95-4.24.61.61,0,0,1,.07-.83,3.29,3.29,0,0,0,.9-1.46,3.18,3.18,0,0,0-.4-1.73c-.3-.64-.63-1.56-1.28-1.92a1.74,1.74,0,0,0-1.9.28,3.85,3.85,0,0,0-1.33,3,4,4,0,0,0,.12,1,7.68,7.68,0,0,0,.93,2.14c.3.51.62,1,1,1.48a15,15,0,0,0,4.21,3.91,13.4,13.4,0,0,0,2.62,1.25,5.86,5.86,0,0,0,3.06.48,3.7,3.7,0,0,0,2.77-2.06,1.81,1.81,0,0,0,.13-1.05C195.24,427,194.26,426.61,193.67,426.26Z" style="fill:#fff;fill-rule:evenodd"></path><path d="M313,419.19a.94.94,0,1,0,.94.94A.94.94,0,0,0,313,419.19Z" style="fill:#fff"></path><path d="M308.83,420.12a3.94,3.94,0,1,0,3.93,3.94A3.95,3.95,0,0,0,308.83,420.12Zm0,6.46a2.52,2.52,0,1,1,2.52-2.52A2.52,2.52,0,0,1,308.83,426.58Z" style="fill:#fff"></path><path d="M312,432.32h-6.38a4.8,4.8,0,0,1-4.8-4.8v-6.38a4.8,4.8,0,0,1,4.8-4.8H312a4.8,4.8,0,0,1,4.8,4.8v6.38A4.8,4.8,0,0,1,312,432.32Zm-6.38-14.48a3.3,3.3,0,0,0-3.3,3.3v6.38a3.3,3.3,0,0,0,3.3,3.3H312a3.3,3.3,0,0,0,3.3-3.3v-6.38a3.3,3.3,0,0,0-3.3-3.3Z" style="fill:#fff"></path><path d="M220.9,431.85a.72.72,0,0,1-.5-1.22l3.81-3.81a6.57,6.57,0,0,1,.47-8.69,6.52,6.52,0,1,1,.53,9.7l-3.81,3.81A.71.71,0,0,1,220.9,431.85Zm8.39-14.2a5.09,5.09,0,1,0,3.6,1.49A5.06,5.06,0,0,0,229.29,417.65Z" style="fill:#fff"></path><path d="M260.39,216.59a1.26,1.26,0,0,0,.34,0,1.83,1.83,0,0,0,.87-.38,1.76,1.76,0,0,0,.44-.52,1.58,1.58,0,0,0,.14-.36,1.93,1.93,0,0,0,.05-.42,1.39,1.39,0,0,0-.07-.44A2,2,0,0,0,262,214a1.74,1.74,0,0,0-.74-.68h0v0a1.27,1.27,0,0,0-.68-1.14,1.25,1.25,0,0,0-1.41.23l0,0v-.05a2.35,2.35,0,0,0-1.44-1.66,2.45,2.45,0,0,0-.58-.14h-.3l-.3,0a2.16,2.16,0,0,0-1,.49,2.61,2.61,0,0,0-.66.87,2.27,2.27,0,0,0-.19,1v0h0a1.68,1.68,0,0,0-1.13.13,2.11,2.11,0,0,0-.45.31,2,2,0,0,0-.33.39,1.66,1.66,0,0,0-.17.45,1.71,1.71,0,0,0,0,.45,1.89,1.89,0,0,0,.24.75,1.78,1.78,0,0,0,.81.75,2.44,2.44,0,0,0,.38.13h-.1l-.12,0-.17-.06a1.8,1.8,0,0,1-.83-.75,1.94,1.94,0,0,1-.25-.77,1.81,1.81,0,0,1,0-.46,2,2,0,0,1,.18-.46,1.85,1.85,0,0,1,.34-.41,1.69,1.69,0,0,1,.46-.31,1.73,1.73,0,0,1,1.17-.15l0,0a2.21,2.21,0,0,1,.2-1,2.75,2.75,0,0,1,.67-.9,2.19,2.19,0,0,1,1-.5,1.55,1.55,0,0,1,.31,0h.15l.15,0a1.77,1.77,0,0,1,.6.15,2.39,2.39,0,0,1,1.48,1.69h0a1.3,1.3,0,0,1,1.48-.25,1.32,1.32,0,0,1,.7,1.2l0,0a1.79,1.79,0,0,1,.76.7,2.16,2.16,0,0,1,.19.45,1.74,1.74,0,0,1,.06.45,1.24,1.24,0,0,1,0,.43,1.44,1.44,0,0,1-.15.36,1.58,1.58,0,0,1-.45.53,1.75,1.75,0,0,1-.89.37.79.79,0,0,1-.26,0Z" style="fill:#263238"></path><path d="M260.55,216.77h-.19a.16.16,0,0,1-.13-.11.16.16,0,0,1,0-.16.19.19,0,0,1,.15,0,1.57,1.57,0,0,0,.29,0,1.67,1.67,0,0,0,.79-.35,1.5,1.5,0,0,0,.4-.47,1.73,1.73,0,0,0,.13-.33,1.55,1.55,0,0,0,0-.37,2.28,2.28,0,0,0-.06-.39,1.78,1.78,0,0,0-.17-.4,1.51,1.51,0,0,0-.67-.61.2.2,0,0,1-.11-.16,1.09,1.09,0,0,0-.58-1,1.07,1.07,0,0,0-1.22.21l0,0a.18.18,0,0,1-.16,0,.16.16,0,0,1-.11-.12l0-.06a2.16,2.16,0,0,0-1.34-1.53,1.87,1.87,0,0,0-.54-.14h-.35a1.25,1.25,0,0,0-.19,0,2,2,0,0,0-1,.46,2.31,2.31,0,0,0-.61.81,2,2,0,0,0-.18.93v0a.16.16,0,0,1-.06.13.15.15,0,0,1-.14,0h0a1.46,1.46,0,0,0-1,.12,1.65,1.65,0,0,0-.41.28,1.79,1.79,0,0,0-.3.36,1.67,1.67,0,0,0-.16.4,1.06,1.06,0,0,0,0,.39,1.54,1.54,0,0,0,.21.69,1.68,1.68,0,0,0,.74.69,2,2,0,0,0,.31.1.19.19,0,0,1,.14.08.2.2,0,0,1,0,.13.18.18,0,0,1-.21.11h-.08l-.15,0h0l-.15-.06a2,2,0,0,1-.9-.81,2,2,0,0,1-.27-.84,1.8,1.8,0,0,1,0-.5,1.77,1.77,0,0,1,.19-.51,2.34,2.34,0,0,1,.37-.45,2.38,2.38,0,0,1,.49-.34,2,2,0,0,1,1-.19,2.52,2.52,0,0,1,.21-.88,2.86,2.86,0,0,1,.71-1,2.35,2.35,0,0,1,1.14-.54.88.88,0,0,1,.24,0h.24l.18,0a2.26,2.26,0,0,1,.63.15,2.66,2.66,0,0,1,1.5,1.53,1.44,1.44,0,0,1,1.42-.08,1.47,1.47,0,0,1,.79,1.22,2,2,0,0,1,.72.71,2.26,2.26,0,0,1,.21.48,2.62,2.62,0,0,1,.07.5,1.82,1.82,0,0,1-.06.46,1.52,1.52,0,0,1-.17.42,2,2,0,0,1-.49.57,2,2,0,0,1-1,.41Z" style="fill:#263238"></path><path d="M256.56,215.44a8,8,0,0,1-.45.8,7.32,7.32,0,0,1-.5.78,5.3,5.3,0,0,1,.45-.81A6.12,6.12,0,0,1,256.56,215.44Z" style="fill:#263238"></path><path d="M255.62,217.19a.16.16,0,0,1-.09,0c-.16-.1-.16-.13.39-1s.53-.83.6-.85a.17.17,0,0,1,.12,0h0a.2.2,0,0,1,.08.1c0,.07,0,.11-.47.93S255.72,217.19,255.62,217.19Z" style="fill:#263238"></path><path d="M258.05,215.44a8,8,0,0,1-.45.8,7.32,7.32,0,0,1-.5.78,5.75,5.75,0,0,1,.44-.81A6.86,6.86,0,0,1,258.05,215.44Z" style="fill:#263238"></path><path d="M257.1,217.18l-.09,0c-.15-.1-.15-.12.4-1s.53-.83.6-.85a.17.17,0,0,1,.12,0h0c.15.09.15.12-.39,1s-.53.83-.6.85Z" style="fill:#263238"></path><path d="M259.53,215.44a5.38,5.38,0,0,1-.44.8,6.49,6.49,0,0,1-.51.78,8.76,8.76,0,0,1,.45-.81A7.79,7.79,0,0,1,259.53,215.44Z" style="fill:#263238"></path><path d="M258.6,217.19l-.1,0c-.15-.1-.15-.13.39-1s.53-.83.6-.85a.2.2,0,0,1,.13,0h0a.18.18,0,0,1,.07.1c0,.07,0,.11-.47.93S258.69,217.19,258.6,217.19Z" style="fill:#263238"></path><path d="M254.84,217.65a8.76,8.76,0,0,1-.45.81,6.55,6.55,0,0,1-.5.77,6,6,0,0,1,.44-.8A7.67,7.67,0,0,1,254.84,217.65Z" style="fill:#263238"></path><path d="M253.89,219.4l-.09,0a.18.18,0,0,1-.07-.1c0-.07,0-.1.47-.93s.56-.92.72-.82h0c.15.09.15.12-.39,1s-.53.83-.6.85Z" style="fill:#263238"></path><path d="M256.32,217.65a5.75,5.75,0,0,1-.44.81,5.88,5.88,0,0,1-.51.77s.19-.37.45-.8A8.84,8.84,0,0,1,256.32,217.65Z" style="fill:#263238"></path><path d="M255.38,219.4l-.09,0a.14.14,0,0,1-.07-.1c0-.07,0-.1.46-.92s.57-.93.73-.83h0c.15.09.15.12-.4,1s-.53.83-.6.85Z" style="fill:#263238"></path><path d="M257.81,217.65a13.4,13.4,0,0,1-.95,1.58s.19-.37.45-.8A8.84,8.84,0,0,1,257.81,217.65Z" style="fill:#263238"></path><path d="M256.86,219.4a.11.11,0,0,1-.08,0,.16.16,0,0,1-.08-.1c0-.07,0-.1.47-.93s.57-.92.72-.82h0c.16.09.16.12-.39,1s-.53.83-.6.85Z" style="fill:#263238"></path><path d="M259.36,217.69a5.38,5.38,0,0,1-.44.8c-.27.44-.49.79-.5.78a5.75,5.75,0,0,1,.44-.81A7.79,7.79,0,0,1,259.36,217.69Z" style="fill:#263238"></path><path d="M258.43,219.44l-.1,0c-.15-.1-.15-.13.39-1s.54-.83.6-.85a.19.19,0,0,1,.13,0h0a.18.18,0,0,1,.07.1c0,.07,0,.11-.46.93S258.53,219.44,258.43,219.44Z" style="fill:#263238"></path><path d="M230.61,209.44v11.09h-1.14V210.45h-2.62v-1Z" style="fill:#263238"></path><path d="M241.78,217.44c0,2-1.66,3.19-4.31,3.19s-4.28-1.22-4.28-3.19a2.77,2.77,0,0,1,2.14-2.73,2.5,2.5,0,0,1-1.74-2.44c0-1.8,1.54-2.93,3.88-2.93s3.92,1.13,3.92,2.93a2.51,2.51,0,0,1-1.78,2.44A2.8,2.8,0,0,1,241.78,217.44Zm-1.17,0c0-1.37-1.17-2.22-3.14-2.22s-3.12.85-3.12,2.22,1.16,2.23,3.12,2.23S240.61,218.8,240.61,217.43Zm-3.14-3.13c1.73,0,2.76-.77,2.76-2s-1.09-2-2.76-2-2.74.76-2.74,2S235.74,214.3,237.47,214.3Z" style="fill:#263238"></path><path d="M243.21,211.23a2.75,2.75,0,1,1,2.74,2.53A2.54,2.54,0,0,1,243.21,211.23Zm4.66,0a1.92,1.92,0,1,0-1.92,1.82A1.79,1.79,0,0,0,247.87,211.23Z" style="fill:#263238"></path><path d="M213.45,176.08v21.13h-3.92V179.37h-4.47v-3.29Z" style="fill:#263238"></path><path d="M217.65,186.64c0-6.94,3.8-10.86,8.81-10.86s8.85,3.92,8.85,10.86-3.81,10.87-8.85,10.87S217.65,193.58,217.65,186.64Zm13.7,0c0-5.1-2-7.45-4.89-7.45s-4.86,2.35-4.86,7.45,2,7.46,4.86,7.46S231.35,191.74,231.35,186.64Z" style="fill:#263238"></path><path d="M237.84,183.41a2.48,2.48,0,1,1,4.95,0,2.48,2.48,0,1,1-4.95,0Zm0,11.5a2.48,2.48,0,1,1,4.95,0,2.48,2.48,0,1,1-4.95,0Z" style="fill:#263238"></path><path d="M245.33,186.64c0-6.94,3.8-10.86,8.81-10.86S263,179.7,263,186.64s-3.81,10.87-8.85,10.87S245.33,193.58,245.33,186.64Zm13.7,0c0-5.1-2-7.45-4.89-7.45s-4.86,2.35-4.86,7.45,2,7.46,4.86,7.46S259,191.74,259,186.64Z" style="fill:#263238"></path><path d="M265.65,186.64c0-6.94,3.8-10.86,8.81-10.86s8.84,3.92,8.84,10.86-3.8,10.87-8.84,10.87S265.65,193.58,265.65,186.64Zm13.7,0c0-5.1-2-7.45-4.89-7.45s-4.86,2.35-4.86,7.45,2,7.46,4.86,7.46S279.35,191.74,279.35,186.64Z" style="fill:#263238"></path><rect x="164.66" y="246.25" width="166.8" height="53.48" rx="8.31" style="fill:#fafafa"></rect><path d="M323.15,299.73s.38,0,1.09-.11a8.15,8.15,0,0,0,3-1.05,8.3,8.3,0,0,0,3.4-3.82,8.45,8.45,0,0,0,.69-3.22c0-1.19,0-2.47,0-3.81,0-5.4,0-12-.06-19.66q0-5.74,0-12.27a12.49,12.49,0,0,0-.26-3.23,8.13,8.13,0,0,0-1.45-2.95,8,8,0,0,0-5.89-3.11L173,246.57a8,8,0,0,0-4.91,1.69,7.88,7.88,0,0,0-2.83,4.32,9.08,9.08,0,0,0-.26,2.62v8.1q0,10.76,0,21.17v5.18c0,.85,0,1.73,0,2.54a8.85,8.85,0,0,0,.6,2.38,8.09,8.09,0,0,0,7.79,4.86H193l67.75.07,45.67.1,12.42.06,3.23,0,1.1,0-1.1,0-3.23,0-12.42.06-45.67.1L193,300H173.39a8.73,8.73,0,0,1-4.95-1.3,8.63,8.63,0,0,1-3.39-3.92,9.09,9.09,0,0,1-.65-2.56c-.07-.9,0-1.74-.05-2.6V255.2a10.13,10.13,0,0,1,.27-2.78,8.64,8.64,0,0,1,8.35-6.48l150.72.12a8.52,8.52,0,0,1,7.7,6.4,12.63,12.63,0,0,1,.27,3.33q0,6.53,0,12.27c0,7.66,0,14.26-.05,19.66,0,1.34,0,2.62,0,3.81a8.34,8.34,0,0,1-4.24,7.14,7.75,7.75,0,0,1-3.07,1A6.5,6.5,0,0,1,323.15,299.73Z" style="fill:#263238"></path><path d="M319.45,257.32a.31.31,0,0,1-.22-.09.3.3,0,0,1,0-.42l4.11-3.94a.3.3,0,0,1,.42.43l-4.11,3.94A.29.29,0,0,1,319.45,257.32Z" style="fill:#263238"></path><path d="M323.54,257.34a.32.32,0,0,1-.21-.08l-4.07-4a.29.29,0,0,1,0-.42.3.3,0,0,1,.42,0l4.07,4a.3.3,0,0,1-.21.51Z" style="fill:#263238"></path><path d="M200.6,283.38,198.93,281a8.54,8.54,0,0,1-1.56-4.9v-5.34a8.7,8.7,0,0,0-7.39-8.6v-2.55a1.17,1.17,0,0,0-1.17-1.17h0a1.17,1.17,0,0,0-1.17,1.17v2.51a8.7,8.7,0,0,0-7.69,8.65v5.53a8.5,8.5,0,0,1-1.81,5.24l-1.44,1.84Z" style="fill:#FF725E"></path><path d="M187.39,287.26a3.77,3.77,0,0,0,3.91-.67,3.72,3.72,0,0,0,1-1.51l-7-.05A3.78,3.78,0,0,0,187.39,287.26Z" style="fill:#FF725E"></path><path d="M294.44,264.32c0,.17-18.68.31-41.73.31s-41.73-.14-41.73-.31,18.68-.31,41.73-.31S294.44,264.15,294.44,264.32Z" style="fill:#263238"></path><path d="M314.11,274.42c0,.17-23.09.31-51.56.31s-51.57-.14-51.57-.31,23.08-.31,51.57-.31S314.11,274.25,314.11,274.42Z" style="fill:#e0e0e0"></path><path d="M314.11,280.47c0,.17-23.09.31-51.56.31s-51.57-.14-51.57-.31,23.08-.31,51.57-.31S314.11,280.3,314.11,280.47Z" style="fill:#e0e0e0"></path><rect x="165.28" y="308.05" width="165.54" height="53.07" rx="8.31" style="fill:#fafafa"></rect><path d="M322.52,361.12s.37,0,1.09-.11a8,8,0,0,0,3-1,8.36,8.36,0,0,0,3.4-3.77,8.48,8.48,0,0,0,.71-3.19v-3.78c0-5.36,0-11.9-.06-19.5q0-5.7,0-12.17a12.3,12.3,0,0,0-.26-3.21,8.24,8.24,0,0,0-1.43-2.93,8,8,0,0,0-5.83-3.13l-149.51.06a8,8,0,0,0-7.73,5.93,8.65,8.65,0,0,0-.27,2.6v2.69c0,1.79,0,3.57,0,5.35v26.14c0,.85,0,1.72,0,2.52a8.62,8.62,0,0,0,.6,2.36,8,8,0,0,0,7.7,4.87h19.43l67.22.07,45.32.1,12.33.06,3.2,0,1.09,0-1.09,0-3.2,0-12.33.06-45.32.1-67.22.07H173.93A8.75,8.75,0,0,1,169,360.1a8.63,8.63,0,0,1-3.35-3.91,9.68,9.68,0,0,1-.65-2.54c-.06-.89,0-1.72,0-2.58v-5.14q0-10.32,0-21v-8a9.66,9.66,0,0,1,.3-2.76,8.66,8.66,0,0,1,8.33-6.39l149.54.12a8.52,8.52,0,0,1,7.62,6.4,12.44,12.44,0,0,1,.26,3.31q0,6.46,0,12.17c0,7.6,0,14.14-.05,19.5,0,1.34,0,2.6,0,3.79a8.18,8.18,0,0,1-.76,3.25,8.34,8.34,0,0,1-3.5,3.8,7.7,7.7,0,0,1-3.05,1A6.38,6.38,0,0,1,322.52,361.12Z" style="fill:#263238"></path><path d="M318.91,319a.3.3,0,0,1-.21-.52l4.08-3.9a.3.3,0,0,1,.42,0,.29.29,0,0,1,0,.42L319.11,319A.3.3,0,0,1,318.91,319Z" style="fill:#263238"></path><path d="M323,319.06a.29.29,0,0,1-.21-.09l-4-3.94a.3.3,0,0,1,0-.42.31.31,0,0,1,.43,0l4,3.94a.31.31,0,0,1,0,.43A.3.3,0,0,1,323,319.06Z" style="fill:#263238"></path><path d="M201,344.9l-1.67-2.36a8.45,8.45,0,0,1-1.54-4.86v-5.3a8.64,8.64,0,0,0-7.33-8.54v-2.53a1.16,1.16,0,0,0-1.17-1.16h0a1.16,1.16,0,0,0-1.16,1.16v2.49a8.65,8.65,0,0,0-7.63,8.59v5.49a8.43,8.43,0,0,1-1.79,5.2l-1.43,1.82Z" style="fill:#e0e0e0"></path><path d="M187.85,348.75a3.77,3.77,0,0,0,3.88-.67,3.6,3.6,0,0,0,1-1.5l-6.91-.05A3.74,3.74,0,0,0,187.85,348.75Z" style="fill:#e0e0e0"></path><path d="M294.09,326c0,.17-18.54.31-41.41.31s-41.42-.14-41.42-.31,18.54-.31,41.42-.31S294.09,325.81,294.09,326Z" style="fill:#263238"></path><path d="M313.61,336c0,.18-22.91.32-51.17.32s-51.18-.14-51.18-.32,22.91-.31,51.18-.31S313.61,335.83,313.61,336Z" style="fill:#e0e0e0"></path><path d="M313.61,342c0,.17-22.91.31-51.17.31s-51.18-.14-51.18-.31,22.91-.31,51.18-.31S313.61,341.84,313.61,342Z" style="fill:#e0e0e0"></path></g><g id="freepik--speech-bubbles-2--inject-109"><path d="M464.9,121.43H429.35a7.06,7.06,0,0,0-7.06,7.06v21.75a7.06,7.06,0,0,0,7.06,7H431l-.63,6.71,8.07-6.71H464.9a7.05,7.05,0,0,0,7.05-7V128.49A7.06,7.06,0,0,0,464.9,121.43Z" style="fill:#fff"></path><path d="M464.9,121.43a1.88,1.88,0,0,1,.35,0,6,6,0,0,1,1,.1,7,7,0,0,1,3.54,1.79,7.24,7.24,0,0,1,1.68,2.39,8,8,0,0,1,.59,3.42c0,2.49,0,5.32,0,8.47s0,6.61,0,10.34c0,.94,0,1.87,0,2.87a7.17,7.17,0,0,1-.84,2.89,7.29,7.29,0,0,1-5,3.68,17.78,17.78,0,0,1-3.25.15H438.42l.16-.06-8.07,6.71-.48.4.06-.63c.1-1.09.21-2.27.32-3.45s.21-2.22.31-3.25l.26.28c-.71,0-1.39,0-2.13,0a6.93,6.93,0,0,1-2.11-.46,7.4,7.4,0,0,1-3.35-2.59,7.26,7.26,0,0,1-1.34-3.95c0-1.37,0-2.69,0-4,0-5.3,0-10.41,0-15.27,0-.61,0-1.21,0-1.81a15.75,15.75,0,0,1,.05-1.81,7.38,7.38,0,0,1,1.29-3.33,7.3,7.3,0,0,1,5.89-3.07l12,0,17.3.08,4.69,0,1.22,0a2.24,2.24,0,0,1,.42,0,2.24,2.24,0,0,1-.42,0l-1.22,0-4.69,0-17.3.08-12,0a6.86,6.86,0,0,0-6.72,6c-.1,1.13,0,2.37,0,3.57,0,4.86,0,10,0,15.27,0,1.32,0,2.67,0,4a6.75,6.75,0,0,0,4.37,6.07A10.24,10.24,0,0,0,431,157h.28l0,.29c-.1,1-.2,2.14-.31,3.25s-.22,2.36-.33,3.45l-.42-.22,8.08-6.7.07-.06h24.76a18.15,18.15,0,0,0,3.16-.13,6.94,6.94,0,0,0,4.67-3.44,6.83,6.83,0,0,0,.8-2.72c.06-.94,0-1.91,0-2.84,0-3.73,0-7.19,0-10.34s0-6,0-8.47a8.07,8.07,0,0,0-.52-3.34,7.11,7.11,0,0,0-5-4.17C465.38,121.43,464.89,121.47,464.9,121.43Z" style="fill:#263238"></path><path d="M441.08,138.87a2.18,2.18,0,1,1-2.18-2.17A2.18,2.18,0,0,1,441.08,138.87Z" style="fill:#263238"></path><path d="M449.3,138.87a2.18,2.18,0,1,1-2.18-2.17A2.18,2.18,0,0,1,449.3,138.87Z" style="fill:#263238"></path><path d="M457.51,138.87a2.17,2.17,0,1,1-2.17-2.17A2.17,2.17,0,0,1,457.51,138.87Z" style="fill:#263238"></path><path d="M428.32,79.38h-24a7.06,7.06,0,0,0-7,7.06v21.75a7.05,7.05,0,0,0,7,7h1.63l-.63,6.71,8.08-6.71h15a7.05,7.05,0,0,0,7.05-7V86.44A7.06,7.06,0,0,0,428.32,79.38Z" style="fill:#fff"></path><path d="M428.32,79.38h.29a4.45,4.45,0,0,1,.86.07,6.82,6.82,0,0,1,3.08,1.25,7,7,0,0,1,2.83,4.41,20.17,20.17,0,0,1,.14,3.34c0,1.18,0,2.43,0,3.75,0,2.63,0,5.52,0,8.64,0,1.56,0,3.18,0,4.85v2.55a7.12,7.12,0,0,1-.51,2.64,7.31,7.31,0,0,1-6.64,4.61H413.36l.16-.06-8.07,6.71-.49.4.06-.62c.11-1.1.22-2.27.33-3.46s.21-2.22.31-3.25l.25.28c-.6,0-1.2,0-1.81,0a7.06,7.06,0,0,1-1.84-.28,7.25,7.25,0,0,1-5-4.94,11.59,11.59,0,0,1-.31-3.49c0-4.55,0-8.93,0-13.1,0-2.09,0-4.12,0-6.09a11.28,11.28,0,0,1,.24-3,7.23,7.23,0,0,1,5.87-5.35,15.72,15.72,0,0,1,2.54-.1h2.41l14.84.08,4,0,1,0,.36,0a1.65,1.65,0,0,1-.36,0l-1,0-4,0-14.84.08h-2.41a14.71,14.71,0,0,0-2.48.11,6.81,6.81,0,0,0-4.33,2.62,6.88,6.88,0,0,0-1.18,2.45,11,11,0,0,0-.21,2.84q0,3,0,6.09c0,4.17,0,8.55,0,13.1a11,11,0,0,0,.29,3.35,6.79,6.79,0,0,0,4.63,4.59,12.28,12.28,0,0,0,3.51.26h.29l0,.28c-.09,1-.2,2.14-.3,3.25s-.23,2.36-.33,3.45l-.42-.22,8.07-6.7.07-.06h12.28c1.95,0,3.9.23,5.55-.58a6.86,6.86,0,0,0,3.58-3.72c.69-1.59.44-3.35.49-5s0-3.29,0-4.85c0-3.12,0-6,0-8.64,0-1.32,0-2.57,0-3.75a21.81,21.81,0,0,0-.11-3.29,7,7,0,0,0-5.66-5.62C428.72,79.39,428.32,79.42,428.32,79.38Z" style="fill:#263238"></path><path d="M424.51,95.42a5.16,5.16,0,0,0-1.3-2.78,4.88,4.88,0,0,0-2.56-1.59,4,4,0,0,0-3.1.59,4.1,4.1,0,0,0-1.28,1.43A3.93,3.93,0,0,0,412,91.16a4.92,4.92,0,0,0-2.57,1.56,5.1,5.1,0,0,0-1.33,2.78,6.23,6.23,0,0,0,.76,3.83,8.81,8.81,0,0,0,3,2.86c2,1.21,4.58,2.71,4.58,2.71s2.21-1.63,4.2-2.82a8.63,8.63,0,0,0,3-2.83A6.22,6.22,0,0,0,424.51,95.42Z" style="fill:#FF725E"></path></g><g id="freepik--speech-bubble-1--inject-109"><path d="M80,114.42l-3.56-6.07a22.4,22.4,0,1,0-3.9,7h0Z" style="fill:#fff"></path><path d="M80,114.42l-.5,0-1.45.16-5.53.65.1.13h0a.09.09,0,0,0,0-.12.09.09,0,0,0-.11,0,22.24,22.24,0,0,1-8.84,6.46,21.72,21.72,0,0,1-6.93,1.55A22.14,22.14,0,0,1,35.79,90.68a21.79,21.79,0,0,1,7.15-7.87,22.35,22.35,0,0,1,9.51-3.58,21.82,21.82,0,0,1,9.53.88,22.25,22.25,0,0,1,14.35,28.22.09.09,0,0,0,0,.07c1.17,1.93,2.07,3.43,2.68,4.45.31.5.54.89.71,1.17l.25.4-.21-.39c-.16-.27-.38-.66-.66-1.16l-2.62-4.56v.07a22.27,22.27,0,0,0,.91-11A22.51,22.51,0,0,0,62.09,79.75a22.21,22.21,0,0,0-9.69-.91,23,23,0,0,0-9.69,3.63,22.22,22.22,0,0,0-7.28,8,22.48,22.48,0,0,0,21.26,33.14,22.1,22.1,0,0,0,7-1.6,22.41,22.41,0,0,0,8.88-6.6l-.15-.1v0a.08.08,0,0,0,0,.11h0l5.58-.77,1.41-.2Z" style="fill:#263238"></path><path d="M61.19,101.19a2.12,2.12,0,1,0,2.12-2.12A2.12,2.12,0,0,0,61.19,101.19Z" style="fill:#263238"></path><path d="M52.69,101.19a2.13,2.13,0,1,0,2.12-2.12A2.12,2.12,0,0,0,52.69,101.19Z" style="fill:#263238"></path><path d="M44.22,100.13a2.12,2.12,0,1,0,2.9-.78A2.12,2.12,0,0,0,44.22,100.13Z" style="fill:#263238"></path></g><g id="freepik--character-2--inject-109"><path d="M371.89,318.19s-5.84,61.13-3.75,72,71.45,57.71,71.45,57.71l10.56-13.28s-16.59-23-31.53-36.33-19-16.07-19-16.07l1.26-6.69,8.26-51Z" style="fill:#b7715b"></path><path d="M411.82,322.38l1.21,60,5.74,83.8H433.4S440,427,439.69,406.48s-.12-28,0-30.53,7.2-30.05,8.77-50.59-8.77-25.94-8.77-25.94Z" style="fill:#b7715b"></path><path d="M411.82,322.38l.46-.4,1.38-1.17,5.41-4.5,20.52-17,.08-.07.09,0a15.24,15.24,0,0,1,4.53,4.55,24.93,24.93,0,0,1,2.95,6.22A42,42,0,0,1,448.67,325c-.77,10.57-2.79,22.07-5.3,34.32-.65,3.06-1.3,6.17-2,9.33l-1,4.77c-.16.8-.34,1.62-.43,2.4s-.07,1.64-.1,2.47c-.13,6.65-.08,13.49,0,20.49,0,3.5.14,7,.09,10.62,0,1.8-.11,3.59-.16,5.4s-.23,3.62-.34,5.44c-.54,7.29-1.36,14.68-2.3,22.16q-1.54,12.15-3.47,23.82l0,.21H418.53l0-.24c-1.39-20.54-2.7-39.79-3.87-57.11-.59-8.66-1.14-16.84-1.65-24.46-.16-1.9-.18-3.78-.21-5.62s-.07-3.64-.1-5.4c-.07-3.53-.13-6.91-.19-10.12-.23-12.85-.41-23.13-.53-30.21,0-3.52-.09-6.24-.12-8.09,0-.91,0-1.61,0-2.09s0-.7,0-.7,0,.24,0,.72,0,1.19.06,2.1c.05,1.87.12,4.59.21,8.12.16,7.08.39,17.34.69,30.18q.1,4.81.22,10.1c0,1.76.07,3.55.11,5.39s.06,3.7.23,5.6c.53,7.62,1.1,15.8,1.7,24.45,1.2,17.32,2.52,36.57,3.94,57.11l-.25-.24H433.4l-.25.21c1.26-7.75,2.43-15.71,3.46-23.8.95-7.47,1.76-14.86,2.3-22.12.12-1.82.23-3.63.34-5.43s.17-3.6.16-5.38c.06-3.57-.06-7.12-.08-10.62-.06-7-.11-13.84,0-20.5,0-.84,0-1.66.09-2.5s.29-1.64.45-2.45c.34-1.61.68-3.2,1-4.78.67-3.16,1.34-6.27,2-9.32,2.52-12.24,4.56-23.73,5.36-34.25a41.91,41.91,0,0,0-1.38-14.81A24.09,24.09,0,0,0,444,304a14.64,14.64,0,0,0-4.4-4.46l.17,0-20.57,16.85-5.48,4.46L412.32,322Z" style="fill:#754235"></path><path d="M416.91,459.9V461s-19.1,7.57-19.32,11.19l37.86,0-.52-12.59A21.7,21.7,0,0,1,416.91,459.9Z" style="fill:#455a64"></path><g style="opacity:0.6000000000000001"><path d="M431.09,463.62a1.54,1.54,0,0,1,1.07,1.76,1.49,1.49,0,0,1-1.74,1.08,1.64,1.64,0,0,1-1.12-1.88,1.55,1.55,0,0,1,1.93-.92" style="fill:#fff"></path></g><g style="opacity:0.6000000000000001"><path d="M435.44,472.18l-.12-3-36.24,1.14s-1.69.73-1.5,1.92Z" style="fill:#fff"></path></g><path d="M416.77,461.13c0,.18.93.26,1.84.86s1.4,1.37,1.57,1.29-.11-1.14-1.22-1.84S416.73,461,416.77,461.13Z" style="fill:#263238"></path><path d="M412.8,462.77c0,.18.76.49,1.39,1.28s.81,1.6,1,1.6.3-1.06-.5-2S412.8,462.6,412.8,462.77Z" style="fill:#263238"></path><path d="M410.55,467.53c.17,0,.42-.89-.05-1.9s-1.34-1.42-1.42-1.26.46.69.83,1.53S410.36,467.51,410.55,467.53Z" style="fill:#263238"></path><path d="M393.94,134.48a16.12,16.12,0,0,1,7.52,12.89c.09,2.51-.27,5.44,1.57,7.15s5,1.29,6.73,3c2.08,2.07.95,5.64,1.93,8.41a5.81,5.81,0,0,0,6.62,3.58,22.58,22.58,0,0,1-10.6,6.12L404.13,172a4.16,4.16,0,0,1,.3,5.11,9.49,9.49,0,0,1-4.34,3.31,28.75,28.75,0,0,1-25.5-1.19" style="fill:#263238"></path><path d="M349.62,161.9c.4-2,1.24-3.88,1.44-5.89.41-4.33-2.19-8.85-.58-12.89,1.15-2.88,4.1-4.56,6.94-5.8s5.9-2.38,7.84-4.79c1.43-1.76,2.09-4.05,3.51-5.82,2-2.53,5.3-3.68,8.49-4.25a19.29,19.29,0,0,1,9.84.46,10.63,10.63,0,0,1,6.81,6.75c.44,1.56.44,3.25,1.12,4.72.74,1.62,2.21,2.78,3.21,4.25a8.53,8.53,0,0,1-.95,10.39L378,180.86c-4.55,2.34-16.31,1.49-20.39-1.59S348.6,166.91,349.62,161.9Z" style="fill:#263238"></path><path d="M396.27,145.39c-1.7-6.52-7.65-13.78-14.1-11.81l-19.54,9.18a4,4,0,0,0-2.71,4.6l9.14,48.46s1,.27,0,0a.28.28,0,0,0-.28.45c2.85,3.27,16.17,17.44,27.5,11.34,2.54-1.36-1.36-9.39-1.4-12.52l-1.27-7.88c-.73-4-1.05-5.65-1-5.61s8.17-3,7.79-14.39C400.17,161.57,398.15,152.64,396.27,145.39Z" style="fill:#b7715b"></path><path d="M394.48,155.55a1.44,1.44,0,0,1-1.08,1.69,1.37,1.37,0,0,1-1.7-1,1.43,1.43,0,0,1,1.08-1.69A1.37,1.37,0,0,1,394.48,155.55Z" style="fill:#263238"></path><path d="M380.79,159.07a1.44,1.44,0,0,1-1.09,1.69,1.37,1.37,0,0,1-1.7-1,1.44,1.44,0,0,1,1.08-1.69A1.38,1.38,0,0,1,380.79,159.07Z" style="fill:#263238"></path><path d="M395.84,150.52c-.13.28-1.55-.41-3.18,0s-2.57,1.7-2.81,1.51,0-.54.36-1.12A3.83,3.83,0,0,1,395,149.7C395.61,150,395.9,150.39,395.84,150.52Z" style="fill:#263238"></path><path d="M381.23,154c-.17.27-1.58-.53-3.36-.25s-2.92,1.44-3.15,1.24,0-.54.52-1.07a4.4,4.4,0,0,1,2.48-1.28,4.29,4.29,0,0,1,2.72.49C381.06,153.45,381.32,153.84,381.23,154Z" style="fill:#263238"></path><path d="M388,163.82a10.08,10.08,0,0,1,2.38-.92c.38-.12.73-.27.75-.54a2.08,2.08,0,0,0-.48-1.1L389,158.52c-2.41-3.9-4.24-7.13-4.08-7.23s2.24,3,4.65,6.89l1.67,2.76a2.21,2.21,0,0,1,.5,1.48,1,1,0,0,1-.53.69,2.44,2.44,0,0,1-.64.22A9.93,9.93,0,0,1,388,163.82Z" style="fill:#263238"></path><path d="M392.57,181.6a28.55,28.55,0,0,1-15.51-1.08s5.21,7,16,3.85Z" style="fill:#754235"></path><path d="M388,167.75a2.78,2.78,0,0,0-2.71.06,2.52,2.52,0,0,0-1.23,1.57,1.6,1.6,0,0,0,.63,1.73,1.88,1.88,0,0,0,2.07-.34,5.89,5.89,0,0,0,1.33-1.88,1.68,1.68,0,0,0,.22-.6.5.5,0,0,0-.23-.52" style="fill:#754235"></path><path d="M383.94,166.64c.25-.06.57,1.59,2.21,2.48s3.36.38,3.42.61-.33.39-1.07.56a4.29,4.29,0,0,1-2.84-.41,3.67,3.67,0,0,1-1.74-2.11C383.72,167.1,383.83,166.65,383.94,166.64Z" style="fill:#263238"></path><path d="M380.68,149.81c-.07.45-1.62.54-3.36,1.1s-3.09,1.33-3.4,1c-.14-.16,0-.6.54-1.11a6.1,6.1,0,0,1,5.15-1.6C380.32,149.34,380.71,149.61,380.68,149.81Z" style="fill:#263238"></path><path d="M393.54,144.53c-.24.4-1.51.28-3,.54s-2.61.74-3,.44c-.16-.15,0-.54.44-1a4.85,4.85,0,0,1,4.76-.79C393.4,144,393.64,144.33,393.54,144.53Z" style="fill:#263238"></path><path d="M358.31,144.87c.85-1.69,2.6-2.72,4.28-3.6a102.85,102.85,0,0,1,22.86-8.71c1.19,1.54.52,3.89-.85,5.27s-3.27,2.08-5,3-3.47,2.15-4,4,.36,4.15-.12,6.17c-.81,3.47-5.34,5.07-6.13,8.54-.6,2.63,1.17,5.15,1.84,7.75a9.63,9.63,0,0,1-8.14,12l-5-28.46C357.74,148.8,357.42,146.67,358.31,144.87Z" style="fill:#263238"></path><path d="M341.85,171.22c1.36-1.53,3.11-2.92,3.49-4.92.55-2.92-2.09-6-.93-8.7,1.06-2.49,5-2.83,5.95-5.36.75-2-.55-3.5-.37-5.18s2.34-3.39,4-3.39l15.22,17.4c1.94,6.2,3.54,9.44,2.61,13.31a30.08,30.08,0,0,0-1.3,6.39c-.05,2.18.78,4.55,2.68,5.62-7.72,1.51-15.5-1.73-22.71-4.9l-7.63-3.35a5.24,5.24,0,0,1-2.15-1.41C339.49,175.12,340.5,172.74,341.85,171.22Z" style="fill:#263238"></path><path d="M350.11,179.61a3.64,3.64,0,0,0,.85.06,7.26,7.26,0,0,0,2.41-.45,7.59,7.59,0,0,0,3.17-2.22,7.42,7.42,0,0,0,1.71-4.81,7.68,7.68,0,0,0-.6-3,12.42,12.42,0,0,0-1.78-2.73,11.35,11.35,0,0,1-1.84-2.84,3.89,3.89,0,0,1,0-3.35c.6-1,1.89-1.42,3.06-2.05a3.6,3.6,0,0,0,1.52-1.43,3.47,3.47,0,0,0,.3-2.1,22.52,22.52,0,0,0-1.35-4,4.41,4.41,0,0,1-.24-2,2.74,2.74,0,0,1,.94-1.71,7.75,7.75,0,0,1,3.82-1.51,8.42,8.42,0,0,0,3.88-1.65,7.53,7.53,0,0,0,2.41-3.3,12.39,12.39,0,0,0,.59-3.85,16.62,16.62,0,0,1,.36-3.59,7.79,7.79,0,0,1,1.51-3,9,9,0,0,1,5.12-3.06,8.9,8.9,0,0,1,4.94.45,10.54,10.54,0,0,1,3.27,1.94,14.28,14.28,0,0,1,2.16,2.44s0-.07-.1-.19-.17-.31-.33-.54a10.57,10.57,0,0,0-4.91-3.89,9.21,9.21,0,0,0-5.1-.53,9.35,9.35,0,0,0-5.34,3.14,8.07,8.07,0,0,0-1.61,3.12,17.19,17.19,0,0,0-.39,3.67,12.35,12.35,0,0,1-.58,3.72,7.21,7.21,0,0,1-2.27,3.1,8.11,8.11,0,0,1-3.7,1.55,8.24,8.24,0,0,0-4,1.62,3.32,3.32,0,0,0-1.09,2,4.93,4.93,0,0,0,.26,2.2,23,23,0,0,1,1.35,3.88,3.1,3.1,0,0,1-.25,1.84,3.3,3.3,0,0,1-1.34,1.25c-.56.31-1.16.55-1.74.87a3.79,3.79,0,0,0-1.47,1.34,4.3,4.3,0,0,0-.05,3.72,11.82,11.82,0,0,0,1.92,2.92,12.26,12.26,0,0,1,1.76,2.64,7.48,7.48,0,0,1,.6,2.82,7.22,7.22,0,0,1-1.58,4.65,7.44,7.44,0,0,1-3.05,2.21A8.63,8.63,0,0,1,350.11,179.61Z" style="fill:#455a64"></path><path d="M338.16,167.37a1.52,1.52,0,0,0-.19.66,2.86,2.86,0,0,0,.56,1.9,2.91,2.91,0,0,0,1.12.93,3,3,0,0,0,1.71.25,3.91,3.91,0,0,0,3.17-2.56,5.21,5.21,0,0,0,.28-2.44,7.3,7.3,0,0,0-.84-2.51c-.82-1.62-2.13-3.13-2.38-5.1a3.61,3.61,0,0,1,.6-2.79,4,4,0,0,1,2.73-1.21,9.68,9.68,0,0,0,3.33-.74,2.9,2.9,0,0,0,1.26-1.33,4.24,4.24,0,0,0,.37-1.78,13.9,13.9,0,0,0-.68-3.44A7.54,7.54,0,0,1,349,144a8.16,8.16,0,0,1,3.08-5.18,11.51,11.51,0,0,1,5.27-1.86,16.08,16.08,0,0,0,4.84-1.35,10.32,10.32,0,0,0,3.24-2.6,10,10,0,0,0,1.63-2.68,7.34,7.34,0,0,0,.65-2.58,14.9,14.9,0,0,1-.81,2.51,10.45,10.45,0,0,1-1.66,2.58,10.13,10.13,0,0,1-3.19,2.48,15.79,15.79,0,0,1-4.77,1.26,11.87,11.87,0,0,0-5.45,1.9,8.52,8.52,0,0,0-3.27,5.45,8,8,0,0,0,.19,3.41,13.86,13.86,0,0,1,.66,3.32,2.91,2.91,0,0,1-1.39,2.72,9.46,9.46,0,0,1-3.17.7,4.37,4.37,0,0,0-3,1.38,4.07,4.07,0,0,0-.67,3.11,7.82,7.82,0,0,0,1.05,2.83c.48.84,1,1.61,1.41,2.39a6.91,6.91,0,0,1,.83,2.38,5,5,0,0,1-.23,2.29,3.66,3.66,0,0,1-2.9,2.42,2.83,2.83,0,0,1-3.27-2.82A4.6,4.6,0,0,1,338.16,167.37Z" style="fill:#263238"></path><path d="M420.88,162.56a3.06,3.06,0,0,1,.21,2,2.74,2.74,0,0,1-1.43,1.83,2.86,2.86,0,0,1-3-.45,2.62,2.62,0,0,1-.85-1.56,5.28,5.28,0,0,1,.07-2c.26-1.36.94-2.9.61-4.6a6.37,6.37,0,0,0-2.89-4.24,7.62,7.62,0,0,0-2.58-1,11.1,11.1,0,0,0-2.82-.08,14.71,14.71,0,0,1-2.73,0,3.58,3.58,0,0,1-2.25-1.06,4.49,4.49,0,0,1-1-2.22,8.63,8.63,0,0,1-.08-2.43,18.24,18.24,0,0,0,.17-4.64,6.87,6.87,0,0,0-1.83-3.63,9,9,0,0,0-2.78-1.86,16,16,0,0,1-2.2-1.17,5.17,5.17,0,0,1-1.46-1.49s0,0,0,.13a3.75,3.75,0,0,0,.2.37,4.32,4.32,0,0,0,1.12,1.14,15.3,15.3,0,0,0,2.18,1.25,9.07,9.07,0,0,1,2.67,1.85,6.72,6.72,0,0,1,1.69,3.47,18.24,18.24,0,0,1-.22,4.54,9.14,9.14,0,0,0,.07,2.55,4.79,4.79,0,0,0,1.12,2.44,4,4,0,0,0,2.52,1.21,14.76,14.76,0,0,0,2.82,0A10.62,10.62,0,0,1,411,153a7,7,0,0,1,2.42.93,6,6,0,0,1,2.72,3.93c.31,1.56-.31,3-.58,4.46a5.77,5.77,0,0,0,0,2.15,2.85,2.85,0,0,0,1,1.73,3.09,3.09,0,0,0,3.27.44,2.9,2.9,0,0,0,1.49-2,2.81,2.81,0,0,0-.11-1.6A1.72,1.72,0,0,0,420.88,162.56Z" style="fill:#263238"></path><path d="M436.78,271.92s8,12.78,11.68,23.67,2.22,37.53,2.22,37.53l-38.86,3.81-1.19-10.47-1.22,10.24-41.27,1.71,3-29-1.66-22.16Z" style="fill:#263238"></path><path d="M403.19,297.17c.14,0,1.92,6.49,4,14.58s3.61,14.67,3.47,14.7-1.92-6.49-4-14.57S403.05,297.21,403.19,297.17Z" style="fill:#455a64"></path><path d="M435.71,296.55c0,.08-1.29.4-3.37,1a63.17,63.17,0,0,0-7.92,3,62.31,62.31,0,0,0-7.43,4c-1.84,1.16-2.93,2-3,1.88s.23-.26.7-.64,1.18-.93,2.07-1.55a48.69,48.69,0,0,1,15.46-7.06c1.06-.27,1.92-.46,2.53-.56A3.83,3.83,0,0,1,435.71,296.55Z" style="fill:#455a64"></path><path d="M447.12,291.89a8.31,8.31,0,0,1-2.55.22,22.44,22.44,0,0,1-6.13-.95,22.21,22.21,0,0,1-5.63-2.61,8,8,0,0,1-2-1.6,35.75,35.75,0,0,0,7.78,3.71A36.75,36.75,0,0,0,447.12,291.89Z" style="fill:#455a64"></path><path d="M379.67,297.68a3,3,0,0,1-.37,1.65,9.55,9.55,0,0,1-2.51,3.2c-1.2,1-2.37,1.84-3.17,2.47a8.71,8.71,0,0,1-1.34,1c0-.05.34-.57,1.1-1.27s1.9-1.56,3.07-2.57a11.4,11.4,0,0,0,2.52-3C379.45,298.29,379.59,297.66,379.67,297.68Z" style="fill:#455a64"></path><path d="M408.14,297.5s0-.19.29-.37a1.45,1.45,0,0,1,1.29-.08,1.66,1.66,0,0,1,.75.57,1.58,1.58,0,0,1,.26,1.05,2.24,2.24,0,0,1-3.73,1.45,1.61,1.61,0,0,1-.52-1,1.71,1.71,0,0,1,.16-.92,1.46,1.46,0,0,1,1-.83c.31-.06.47,0,.46,0s-.16,0-.4.15a1.36,1.36,0,0,0-.7.79,1.2,1.2,0,0,0,.34,1.38,1.86,1.86,0,0,0,1.8.28,1.84,1.84,0,0,0,1.14-1.42,1.19,1.19,0,0,0-.68-1.24,1.37,1.37,0,0,0-1.05-.08C408.29,297.41,408.17,297.53,408.14,297.5Z" style="fill:#455a64"></path><path d="M352.88,198.82l15.26-6.71s8.64,8,18.65,5c5.85-1.79,7.12-8,7.12-8l17.85,1L419.53,224l.25,19.35,19.91,33.39S415.4,302.09,367.16,294l-3-37.78s-7.42-20.24-7.76-27,0-14.84,0-14.84Z" style="fill:#FF725E"></path><path d="M409.14,242.81a6.64,6.64,0,0,1-.89,1c-.59.65-1.5,1.54-2.66,2.6a64.09,64.09,0,0,1-20.84,12.68c-1.48.54-2.68.93-3.53,1.16a7.07,7.07,0,0,1-1.33.32,6,6,0,0,1,1.27-.51c.82-.29,2-.74,3.46-1.32a76,76,0,0,0,10.89-5.44,75.2,75.2,0,0,0,9.84-7.17c1.18-1,2.12-1.86,2.76-2.46A6.64,6.64,0,0,1,409.14,242.81Z" style="fill:#263238"></path><g style="opacity:0.30000000000000004"><path d="M426.75,255.08a6.77,6.77,0,0,1-6.94-1,18.06,18.06,0,0,1-4-5.78l-7.36-14.41a38.77,38.77,0,0,0-26.18,1.41,9,9,0,0,0-3.39,2.2c-1.22,1.44-1.51,3.43-1.74,5.3-.56,4.54-1,9.17-2.81,13.39s-5.07,8.06-9.48,9.28L362.48,245l6.68-16.27,32.18-6,13.31,5,9,22Z"></path></g><path d="M354.73,198.33s-7.6.81-10.62,10.85c-2.23,7.37-3.94,21.52-3.94,21.52l18.68,1v-18Z" style="fill:#FF725E"></path><path d="M411.76,190.09a14.59,14.59,0,0,1,9.68,3.66c4.06,3.87,12.91,18.67,12.91,18.67l-18,6.09-5.78-17.94Z" style="fill:#FF725E"></path><path d="M353.81,217.32a11.18,11.18,0,0,1,.93,2.13c.59,1.52,1.27,3.27,2,5.2l2.07,5.18a10.28,10.28,0,0,1,.78,2.19,10.23,10.23,0,0,1-1.11-2c-.62-1.29-1.42-3.1-2.23-5.14s-1.46-3.9-1.89-5.27A10.05,10.05,0,0,1,353.81,217.32Z" style="fill:#263238"></path><path d="M414,204.15a75.12,75.12,0,0,1,2.58,8.57,76.34,76.34,0,0,1,2.08,8.72,74.92,74.92,0,0,1-2.58-8.58A77,77,0,0,1,414,204.15Z" style="fill:#263238"></path><path d="M396.57,389.78q2.19-6,4.39-12.11" style="fill:#b7715b"></path><path d="M401,377.67a41.2,41.2,0,0,1-1.95,6.15,39.08,39.08,0,0,1-2.44,6,41.7,41.7,0,0,1,1.95-6.14A40,40,0,0,1,401,377.67Z" style="fill:#754235"></path><path d="M377,194.17l2.52,27.08a1.71,1.71,0,0,0,1.87,1.52l17.4-1.32a1.75,1.75,0,0,0,1.65-1.81l-1.65-28.46a1.71,1.71,0,0,0-2-1.56l-18.27,2.7A1.74,1.74,0,0,0,377,194.17Z" style="fill:#263238"></path><path d="M387.32,207c-.46.12-10.27,3.67-10.27,3.67l-13,9.84-5.16,11.21,9.51,11.59,1.89-11.82a18.85,18.85,0,0,0,6.72-.28c3-.83,12.69-3.31,12.69-3.31l4.56-3.59s1.16-2.84,1-3.54a1.16,1.16,0,0,0-1.94-.68c-.93.75-8,2.16-9.85,1.77,0,0,10.16-2.56,11.19-4.42s.37-3.06-1.25-2.77-7.35,2.2-9.14,2.37-4,.57-4.58-.2.6-1.71.6-1.71l1.66-1.76s7.27-2.62,7.43-4.26A1.85,1.85,0,0,0,387.32,207Z" style="fill:#b7715b"></path><path d="M390.67,205.85s8.84-.2,9.47.23,13.75,11.25,13.75,11.25l3.07,1.94-5.2,10-1.51-.55-10.59-3.31a15.89,15.89,0,0,0-3.25-.41s-10,.27-10.88-.75-.52-1.34.17-1.65a60.37,60.37,0,0,1,8-.71,20.45,20.45,0,0,0,3.89-.7s-4.22-.18-5.19-.33-10.42-.47-10.55-2.06.89-2.37,6.85-1.9a42.87,42.87,0,0,0,9.86-.24l-13.34-2s-5.35-.66-4-2.35,12.75-.75,12.75-.75l5.11.88L397.26,210s-7.18-.72-8.17-1.22c-1.23-.62-1.51-1.34-.82-2.16S390.67,205.85,390.67,205.85Z" style="fill:#b7715b"></path><path d="M432.8,213l-14.66,5,.73,3.42L416,218.64l-4.2,10.68s3.31,6.19,5.1,9.61c4.8,9.17,11.73,19.15,17.73,17.5,7.2-2,9.37-10.23,8.28-15.62C441.87,235.92,432.8,213,432.8,213Z" style="fill:#b7715b"></path><path d="M341.28,230.76l13.47.82,4.1.11,2.65-5.83,7.84,10s-.93,6.95-1.41,10.78c-1.29,10.27-4.29,22-10.49,22.6-7.43.67-14.29-6.72-15.15-12.14C341.51,252.16,341.28,230.76,341.28,230.76Z" style="fill:#b7715b"></path><path d="M413.9,217.29l-.36-.32-1.08-.91-4.15-3.45-6.58-5.42-1-.8-.51-.4a2.07,2.07,0,0,0-.7-.18c-.91-.09-1.84-.11-2.8-.13q-2.88,0-6.08,0h0a5,5,0,0,0-1.61.22,2.4,2.4,0,0,0-.75.41,1.72,1.72,0,0,0-.48.71,1,1,0,0,0,.06.88,1.93,1.93,0,0,0,.61.63,2.81,2.81,0,0,0,.77.4c.29.09.57.15.85.21,2.27.42,4.65.67,7.12.94l-.11-.06,1.86,2.54.16-.24-5.11-.88h0c-2.15-.15-4.35-.25-6.61-.24a33.19,33.19,0,0,0-3.43.16,10.32,10.32,0,0,0-1.73.32,2.86,2.86,0,0,0-.85.36,1.14,1.14,0,0,0-.54.81,1,1,0,0,0,.46.86,3.64,3.64,0,0,0,.8.43,10.3,10.3,0,0,0,1.72.51c1.17.25,2.36.37,3.55.56l7.23,1.06,3.92.57v-.34a45.12,45.12,0,0,1-9.12.3,39.43,39.43,0,0,0-4.47-.15,6.47,6.47,0,0,0-2.21.39,1.66,1.66,0,0,0-.89.76,1.82,1.82,0,0,0-.14,1.12.85.85,0,0,0,.37.5,2.7,2.7,0,0,0,.5.27,6.49,6.49,0,0,0,1,.33c.69.18,1.38.29,2.07.4,1.39.2,2.76.32,4.11.42l2,.15c.65,0,1.32.14,2,.17,1.3.08,2.59.14,3.84.19l0-.29a17.18,17.18,0,0,1-4.25.71c-1.43.06-2.81.16-4.17.28-.67.06-1.34.12-2,.2-.33,0-.65.08-1,.14a3.29,3.29,0,0,0-.5.12,2.85,2.85,0,0,0-.45.25.74.74,0,0,0-.3.48,1.06,1.06,0,0,0,.11.51,3.07,3.07,0,0,0,.26.4l.14.19a.68.68,0,0,0,.21.17,5.57,5.57,0,0,0,1.83.42,61.27,61.27,0,0,0,6.77.22l1.54,0a11.83,11.83,0,0,1,1.46,0,10.5,10.5,0,0,1,2.66.43l7.66,2.34,2,.6.52.15.18.05a.62.62,0,0,0-.18-.07l-.51-.17-2-.65L400,225.43a18.32,18.32,0,0,0-5.72-.47,63.49,63.49,0,0,1-6.74-.25,5.69,5.69,0,0,1-1.72-.4.38.38,0,0,1-.14-.11l-.14-.18a2.67,2.67,0,0,1-.22-.36c-.14-.26-.14-.51.11-.67a2.08,2.08,0,0,1,.39-.22,4.13,4.13,0,0,1,.44-.1l1-.14,2-.19c1.35-.11,2.74-.21,4.15-.26a17.57,17.57,0,0,0,4.33-.71.15.15,0,0,0,.12-.18.15.15,0,0,0-.15-.11h0c-1.25-.06-2.54-.12-3.83-.21-.66,0-1.29-.13-2-.18l-2-.14c-1.35-.11-2.71-.23-4.08-.43-.68-.11-1.37-.22-2-.39a7.49,7.49,0,0,1-1-.32c-.29-.13-.64-.31-.68-.54a1.57,1.57,0,0,1,.12-.91,1.33,1.33,0,0,1,.71-.6A6.24,6.24,0,0,1,385,217a44.21,44.21,0,0,1,4.43.15,43.93,43.93,0,0,0,9.21-.29.17.17,0,0,0,0-.34h0l-3.93-.57-7.23-1.06c-1.18-.19-2.38-.31-3.52-.55a9.33,9.33,0,0,1-1.66-.49,3.31,3.31,0,0,1-.72-.39.66.66,0,0,1-.33-.57c.06-.46.6-.73,1.13-.87a9.38,9.38,0,0,1,1.68-.3,32.07,32.07,0,0,1,3.39-.17c2.24,0,4.44.08,6.58.23h0l5.11.87a.16.16,0,0,0,.19-.12.16.16,0,0,0,0-.12c-.65-.88-1.29-1.75-1.86-2.54a.14.14,0,0,0-.11-.06c-2.47-.26-4.86-.51-7.1-.92a6.84,6.84,0,0,1-.81-.19,2.48,2.48,0,0,1-.7-.37,1,1,0,0,1-.58-1.19,1.64,1.64,0,0,1,1.06-1,4.53,4.53,0,0,1,1.5-.2h0c2.13,0,4.16-.08,6.07-.06,1,0,1.89,0,2.78.12a1.91,1.91,0,0,1,.59.13l.51.39,1,.79,6.62,5.37,4.2,3.4,1.1.88C413.76,217.2,413.9,217.29,413.9,217.29Z" style="fill:#754235"></path><path d="M416.52,219.16c-.08.1,5.34,4.65,12.12,10.17s12.34,9.92,12.43,9.82S435.73,234.5,429,229,416.61,219.06,416.52,219.16Z" style="fill:#754235"></path><path d="M349.69,251.32c.08,0,.37-1.28,1.09-3.31a62,62,0,0,1,3.46-7.68c1.52-2.93,3-5.54,4-7.46.51-1,.9-1.75,1.16-2.3a4.62,4.62,0,0,0,.35-.87,3.41,3.41,0,0,0-.51.8L358,232.73c-1.08,1.88-2.62,4.46-4.15,7.41a50.09,50.09,0,0,0-3.35,7.78,21.16,21.16,0,0,0-.65,2.47A3.81,3.81,0,0,0,349.69,251.32Z" style="fill:#754235"></path><path d="M437.81,447l.94.71S433.08,468.55,436,471l23.83-31.83-10.92-7.5A22.76,22.76,0,0,1,437.81,447Z" style="fill:#455a64"></path><g style="opacity:0.6000000000000001"><path d="M449.87,437.44a1.61,1.61,0,0,1,2.15.21,1.56,1.56,0,0,1-.19,2.14,1.7,1.7,0,0,1-2.28-.24,1.61,1.61,0,0,1,.45-2.2" style="fill:#fff"></path></g><g style="opacity:0.6000000000000001"><path d="M459.81,439.18l-2.62-1.81-21.88,31.17s-.45,1.88.67,2.47Z" style="fill:#fff"></path></g><path d="M438.75,447.9c.16.11.82-.61,1.89-1s2-.31,2.07-.5-1-.63-2.31-.13S438.59,447.83,438.75,447.9Z" style="fill:#263238"></path><path d="M437.64,452.28c.12.14.89-.33,1.94-.37s1.86.34,2,.18-.69-.92-2-.85S437.49,452.16,437.64,452.28Z" style="fill:#263238"></path><path d="M440.21,457.16c.14-.11-.47-.91-1.62-1.15s-2,.24-2,.4.88,0,1.82.26S440.08,457.31,440.21,457.16Z" style="fill:#263238"></path></g><g id="freepik--character-1--inject-109"><path d="M107.71,371.26l23,3.59s4.07,24.57,8.25,25.64l8.56-44.31-35.59-7.06Z" style="fill:#455a64"></path><path d="M131.42,360.77a1.85,1.85,0,0,1,2.31-.85,1.77,1.77,0,0,1,.86,2.28,1.93,1.93,0,0,1-2.44.89,1.83,1.83,0,0,1-.64-2.47" style="fill:#e0e0e0"></path><path d="M147.51,356.18l-3.62-.57L137,398.31s.48,2.14,1.91,2.18Z" style="fill:#263238"></path><path d="M130.33,375.52c.22,0,.53-1,1.43-1.95s1.92-1.33,1.87-1.54-1.36-.14-2.43,1S130.12,375.53,130.33,375.52Z" style="fill:#263238"></path><path d="M131.36,380.54c.2.09.75-.77,1.8-1.33s2.07-.58,2.1-.8-1.16-.59-2.46.13S131.15,380.5,131.36,380.54Z" style="fill:#263238"></path><path d="M136.41,384.26c.08-.19-.94-.7-2.23-.37s-2,1.24-1.8,1.37.92-.38,2-.63S136.35,384.47,136.41,384.26Z" style="fill:#263238"></path><path d="M125.18,374.13c.22-.06.11-1.11.43-2.31s.89-2.09.73-2.24-1.12.62-1.47,2.05S125,374.2,125.18,374.13Z" style="fill:#263238"></path><path d="M91.43,435.86l.38,23.26s-23.52,8.19-23.87,12.49l45.13.9.9-36.27Z" style="fill:#455a64"></path><path d="M105.8,457.44a1.84,1.84,0,0,1,1.23,2.13,1.78,1.78,0,0,1-2.1,1.24,2,2,0,0,1-1.29-2.27,1.84,1.84,0,0,1,2.33-1" style="fill:#e0e0e0"></path><path d="M113.07,472.51l-.06-3.66-43.24.51s-2,.83-1.83,2.25Z" style="fill:#263238"></path><path d="M91.08,458.87c0,.22,1.1.34,2.17,1.07s1.63,1.67,1.84,1.59-.1-1.36-1.41-2.22S91,458.67,91.08,458.87Z" style="fill:#263238"></path><path d="M86.31,460.74c-.06.21.89.6,1.62,1.55s.93,1.94,1.15,1.93.38-1.25-.55-2.41S86.32,460.53,86.31,460.74Z" style="fill:#263238"></path><path d="M83.51,466.35c.2,0,.53-1.05,0-2.26s-1.56-1.72-1.66-1.54.53.84,1,1.85S83.29,466.32,83.51,466.35Z" style="fill:#263238"></path><path d="M91.58,453.56c.09.2,1.11-.08,2.35,0s2.21.52,2.33.33-.8-1-2.27-1.1S91.48,453.39,91.58,453.56Z" style="fill:#263238"></path><path d="M69,273.1s-34.48,44.53-37.42,56.82c-2.27,9.45.58,15.11,12.13,20.88s81.87,28.54,81.87,28.54l4.9-28.06L72.83,328.87,95,313l9.54-46.68-33.23-1Z" style="fill:#263238"></path><path d="M78.76,283.14s4.39,72.83,6.39,79.65,6.66,16.26,6.66,25.7-3.33,68.18-3.33,68.18l27.33.94s8.61-70.17,7.28-83.28,4.66-55.6,6.66-66.61,5.1-15.74,4.44-33.05l0-9.44H75.83Z" style="fill:#263238"></path><path d="M129.75,307.72s0,.25-.11.74-.19,1.24-.34,2.2c-.3,1.93-.74,4.78-1.26,8.47-1,7.39-2.51,18.13-3.81,31.56-.3,3.37-.61,6.89-.83,10.58a104.17,104.17,0,0,0-.2,11.52,92,92,0,0,1,0,12.43c-.21,4.28-.54,8.67-.91,13.19-1.51,18.08-3.7,38-6.24,59.24l0,.23h-.23L90.06,457l-1.59-.06h-.26v-.26c.66-12.08,1.3-23.87,1.91-35.25s1.2-22.36,1.44-32.8a47.44,47.44,0,0,0-2.89-14.87c-.77-2.35-1.62-4.64-2.42-6.91-.4-1.13-.8-2.26-1.14-3.4a12.79,12.79,0,0,1-.41-1.73c-.12-.59-.22-1.17-.28-1.75-.64-4.62-1-9.09-1.4-13.39s-.68-8.43-1-12.38c-1.18-15.76-2-28.53-2.52-37.35-.26-4.4-.46-7.82-.6-10.15-.06-1.15-.11-2-.14-2.64s0-.9,0-.9,0,.3.08.9.1,1.48.18,2.63c.16,2.34.4,5.75.7,10.15.6,8.81,1.46,21.57,2.68,37.34q.5,5.91,1,12.36c.4,4.3.78,8.78,1.42,13.37a16.06,16.06,0,0,0,.29,1.71,12.35,12.35,0,0,0,.4,1.7c.34,1.13.74,2.25,1.13,3.38.81,2.27,1.66,4.56,2.45,6.91a48.29,48.29,0,0,1,2.93,15c-.23,10.48-.85,21.44-1.41,32.83s-1.25,23.17-1.9,35.24l-.25-.27,1.59.06,25.74.89-.27.22c2.55-21.18,4.76-41.15,6.3-59.2.37-4.52.71-8.91.93-13.18a93.19,93.19,0,0,0,0-12.39,104.57,104.57,0,0,1,.23-11.56c.23-3.7.54-7.23.86-10.59,1.35-13.44,2.87-24.17,4-31.55.55-3.69,1-6.54,1.35-8.47.17-.95.31-1.68.4-2.18S129.75,307.72,129.75,307.72Z" style="fill:#455a64"></path><path d="M73.14,328.8a25.47,25.47,0,0,0-3.6.07,29,29,0,0,0-3.44,1.05,5.46,5.46,0,0,1,3.36-1.56A5.41,5.41,0,0,1,73.14,328.8Z" style="fill:#455a64"></path><path d="M121.2,293.73a5.89,5.89,0,0,1-1.19.16,9.59,9.59,0,0,1-1.41.08c-.55,0-1.18,0-1.87-.05a25.89,25.89,0,0,1-4.81-.76,30,30,0,0,1-5.58-2.09,29.66,29.66,0,0,1-5-3.25,25.63,25.63,0,0,1-3.47-3.42,17,17,0,0,1-1.14-1.47,9.47,9.47,0,0,1-.78-1.18,5.37,5.37,0,0,1-.57-1.05c.09-.06.95,1.42,2.77,3.46a29.08,29.08,0,0,0,3.49,3.29A29.19,29.19,0,0,0,112,292.7a30,30,0,0,0,4.72.86C119.48,293.81,121.19,293.62,121.2,293.73Z" style="fill:#455a64"></path><path d="M102,149.9l-3.38,3.27-5-4.85-1.4-3.63L85.89,139a30.39,30.39,0,0,0,0,3.64l-3.56,6.86v12.81l-3.55,6.94,13.74,4,2.5-8.44a27.14,27.14,0,0,0,5.85-4.71c2-2.42,4-11,4-11A3,3,0,0,0,102,149.9Z" style="fill:#ffbf9d"></path><path d="M91.46,152.74a1.3,1.3,0,0,1-.36-1.29L93,144.73l5.64-18.09a1.28,1.28,0,0,1,2.08-.58l7.73,6.88a1.28,1.28,0,0,1,.37,1.35l-7.9,24.63a1.29,1.29,0,0,1-2.09.55Z" style="fill:#e0e0e0"></path><path d="M92.42,152.16a1.18,1.18,0,0,1-.33-1.18l1.74-6.3,5.17-17a1.17,1.17,0,0,1,1.89-.53l7.14,6.25a1.17,1.17,0,0,1,.34,1.23l-7.63,23.19a1.17,1.17,0,0,1-1.9.5Z" style="fill:#263238"></path><path d="M92.19,144.69s.72.23,2.61,1c2.24.87,2.79-.3,2.79-.3h0a1.6,1.6,0,0,0-.88-2.07l-4.52-1.84.06-.95s2.35.29,4.08.29c3.62,0,2.26-3.11,2.26-3.11l-4.17-.54,2.12-3.07a2.31,2.31,0,0,0-.38-3.39l-7.84,6.47s-2.28.94-2.43,1.88a30.39,30.39,0,0,0,0,3.64Z" style="fill:#ffbf9d"></path><path d="M96.75,145.92a3.42,3.42,0,0,1-1.78,0,18.09,18.09,0,0,1-4.09-1.28l-.57-.25.32-.1c-.8,1.26-1.37,2.49-1.88,3.33a4.15,4.15,0,0,1-.93,1.27,7,7,0,0,1,.63-1.44A29.58,29.58,0,0,1,90.2,144l.11-.18.21.09.56.24a28,28,0,0,0,4,1.4C96.08,145.81,96.75,145.84,96.75,145.92Z" style="fill:#ff9a6c"></path><path d="M92.23,141.66c0,.06-.38-.16-1-.36a4.44,4.44,0,0,0-2.33-.17,4.36,4.36,0,0,0-2.07,1.1c-.46.42-.67.76-.74.72s0-.44.47-1a3.91,3.91,0,0,1,2.23-1.36,4,4,0,0,1,2.59.34C92,141.28,92.27,141.61,92.23,141.66Z" style="fill:#ff9a6c"></path><path d="M97.94,137.6c0,.15-2.18-.33-4.85-.43s-4.85.17-4.88,0a12,12,0,0,1,4.9-.54A12.38,12.38,0,0,1,97.94,137.6Z" style="fill:#ff9a6c"></path><path d="M92.34,162.61c-.08,0,.11-.74.15-1.92a9.5,9.5,0,0,0-3.73-8c-.94-.73-1.62-1-1.59-1.12a4.24,4.24,0,0,1,1.8.82,8.85,8.85,0,0,1,3.89,8.32A4.22,4.22,0,0,1,92.34,162.61Z" style="fill:#ff9a6c"></path><path d="M100.4,167.23h0A18.66,18.66,0,0,0,92.21,176l-3,10.5,3.91-13.17-19.22-6.09s-9.52,20.54-11.74,32.17c-1.71,8.95-1.51,20.85,5.55,22.66,8.08,2.56,14.52-.82,20-7.79l13.84-19.79Z" style="fill:#455a64"></path><path d="M75.32,168.2s.12,0,.34.05l1,.25,3.68,1,12.81,3.6.24.06-.07.24-3.24,11c-1.18,4-2.35,7.72-3.29,11.17s-1.85,6.56-2.85,9.1a32.86,32.86,0,0,1-2.88,5.75c-.4.64-.75,1.12-1,1.44a3,3,0,0,1-.38.48s.44-.72,1.19-2a36,36,0,0,0,2.72-5.77c.94-2.53,1.78-5.64,2.73-9.09s2.07-7.24,3.26-11.2,2.26-7.59,3.26-11l.17.3-12.76-3.78-3.65-1.12-1-.32A1.34,1.34,0,0,1,75.32,168.2Z" style="fill:#263238"></path><path d="M123.69,96.78a5,5,0,0,0-5.37-2.11,6.78,6.78,0,0,0-8.35.84,6.07,6.07,0,0,0-8.71,5.72,5.19,5.19,0,0,0-5.06,3.11,5.27,5.27,0,0,0,1.35,5.81,4.9,4.9,0,0,0,2.82,9.33l22.88-16.91A5,5,0,0,0,123.69,96.78Z" style="fill:#263238"></path><path d="M99.72,120.22a20.71,20.71,0,0,1,19-20.73l1.06-.09c11.56-.27,16.06,10.08,16,21.71l2.51,43h0l-17,17.38-6.39-11.38-2.28-11.38s-11.2-.83-12.25-11.93C99.9,141.43,99.74,130.3,99.72,120.22Z" style="fill:#ffbf9d"></path><path d="M112.56,158.71a26.83,26.83,0,0,0,14.13-5.46s-2.33,8.56-13.44,8.46Z" style="fill:#ff9a6c"></path><path d="M103.77,130.25a1.59,1.59,0,0,0,1.66,1.48,1.51,1.51,0,0,0,1.51-1.56,1.59,1.59,0,0,0-1.66-1.48A1.51,1.51,0,0,0,103.77,130.25Z" style="fill:#263238"></path><path d="M102.47,126c.21.19,1.33-.8,3-.93s3,.62,3.18.39-.14-.46-.72-.81a4.34,4.34,0,0,0-2.57-.57,4.17,4.17,0,0,0-2.39,1C102.51,125.57,102.37,126,102.47,126Z" style="fill:#263238"></path><path d="M118.39,129.79a1.59,1.59,0,0,0,1.65,1.48,1.52,1.52,0,0,0,1.51-1.57,1.59,1.59,0,0,0-1.65-1.48A1.53,1.53,0,0,0,118.39,129.79Z" style="fill:#263238"></path><path d="M118.7,124.47c.21.19,1.34-.8,3-.93s3,.61,3.18.39-.14-.46-.72-.81a4.36,4.36,0,0,0-2.57-.57,4.17,4.17,0,0,0-2.39,1C118.74,124,118.6,124.38,118.7,124.47Z" style="fill:#263238"></path><path d="M114.15,137.59a10.78,10.78,0,0,0-2.8-.27c-.44,0-.86-.07-1-.36a2.32,2.32,0,0,1,.19-1.32c.32-1.08.65-2.23,1-3.42,1.39-4.88,2.36-8.87,2.16-8.93s-1.48,3.85-2.87,8.73c-.34,1.2-.65,2.35-1,3.44a2.54,2.54,0,0,0-.08,1.73,1.07,1.07,0,0,0,.76.58,2.47,2.47,0,0,0,.75,0A10.68,10.68,0,0,0,114.15,137.59Z" style="fill:#263238"></path><path d="M119.24,138.36c-.28,0-.13,1.86-1.6,3.31s-3.45,1.4-3.44,1.66.47.32,1.3.28a4.6,4.6,0,0,0,2.88-1.28,4,4,0,0,0,1.22-2.77C119.61,138.78,119.37,138.34,119.24,138.36Z" style="fill:#263238"></path><path d="M118.28,119.59c.23.43,1.66-.09,3.44-.21s3.3.14,3.44-.32c.06-.22-.27-.6-.92-.92a5.29,5.29,0,0,0-2.7-.49,5.18,5.18,0,0,0-2.55.89C118.42,119,118.17,119.39,118.28,119.59Z" style="fill:#263238"></path><path d="M102.47,121.32c.3.39,1.47,0,2.89,0s2.6.27,2.88-.14c.12-.2-.07-.59-.59-1a4,4,0,0,0-2.35-.64,4,4,0,0,0-2.3.78C102.5,120.73,102.34,121.13,102.47,121.32Z" style="fill:#263238"></path><path d="M100.37,115s2.34-7.21,5.54-9.1c3.88-2.3,6,2,9.75.62s7.47-3.61,11.65-.93c4.57,2.92,2.74,5.38,3.42,10.29,2.72,19.91,6.81,25.27,7.07,15.77,0-1,2.81-2.1,2.87-6.49.09-5.7-.26-12.59-1.85-16.5-1.33-3.29-3.44-5.47-7.09-7.76-5.76-3.62-13.22-3.1-18.24-2.17S99.19,106.36,100.37,115Z" style="fill:#263238"></path><path d="M135.67,131.56a3,3,0,0,1,3-3.18c2.08,0,4.47,1,4.69,5.32.38,7.62-7.31,6.42-7.33,6.21S135.8,134.75,135.67,131.56Z" style="fill:#ffbf9d"></path><path d="M137.53,137s.14.08.37.17a1.35,1.35,0,0,0,1,0,3.32,3.32,0,0,0,1.36-3,4.39,4.39,0,0,0-.47-1.88,1.53,1.53,0,0,0-1-1,.68.68,0,0,0-.76.4c-.09.22,0,.37-.07.39s-.17-.12-.13-.44a.83.83,0,0,1,.28-.49,1,1,0,0,1,.72-.23,1.85,1.85,0,0,1,1.43,1.11,4.58,4.58,0,0,1,.57,2.1c0,1.54-.68,3-1.76,3.39a1.43,1.43,0,0,1-1.22-.14C137.56,137.14,137.51,137,137.53,137Z" style="fill:#ff9a6c"></path><path d="M135.71,116.73a7.23,7.23,0,0,1-3.07,1.75,2.48,2.48,0,0,1-2.88-1.52c-.13-.52-.06-1.15-.44-1.53s-1.2-.24-1.82-.12a4.85,4.85,0,0,1-5.3-3.06,2,2,0,0,1-2.69.48,11.12,11.12,0,0,1-2.24-2,3.1,3.1,0,0,0-2.7-1.09,8,8,0,0,1-1.62.5c-1,0-1.58-1.14-1.81-2.12s-.44-2.12-1.32-2.59-1.81-.06-2.71.15-2.1.09-2.41-.79a1.86,1.86,0,0,1,.22-1.41,4.91,4.91,0,0,1,5.63-2.34,6.64,6.64,0,0,1,12.08-2.29,6.73,6.73,0,0,1,11,1.59,5,5,0,0,1,5.24,1.32,5.06,5.06,0,0,1,.85,5.36,4.7,4.7,0,0,1,2.86,3.5c.15,1.58-1.24,3.27-2.79,3a2.71,2.71,0,0,1-4.45,3.09" style="fill:#263238"></path><path d="M140.31,113.39a1.87,1.87,0,0,1-.35,1.5,2.48,2.48,0,0,1-1.44,1,2.64,2.64,0,0,1-2.21-.45l.32-.08a7.48,7.48,0,0,1-1.36,2,4.21,4.21,0,0,1-1.3,1,2.91,2.91,0,0,1-1.51.27,3,3,0,0,1-2.29-1.08,4.53,4.53,0,0,1-.74-1.53,1.62,1.62,0,0,1-.11-.61s.12.2.27.55a5.06,5.06,0,0,0,.82,1.39,3.08,3.08,0,0,0,4.55-.26,7.79,7.79,0,0,0,1.29-1.9l.12-.23.2.16a2.29,2.29,0,0,0,1.87.43,2.25,2.25,0,0,0,1.31-.84A3.75,3.75,0,0,0,140.31,113.39Z" style="fill:#455a64"></path><path d="M124.6,97.2a5.47,5.47,0,0,1-.52.24,2.64,2.64,0,0,0-1.09,1.1l-.07.15-.12-.13a9.51,9.51,0,0,0-3.9-2.67,7.34,7.34,0,0,0-3-.42A6.33,6.33,0,0,0,111,98.63a5.1,5.1,0,0,0-.64,2.36v.24l-.23,0a4.22,4.22,0,0,0-3.11.64,4.15,4.15,0,0,0-1.56,2,5.83,5.83,0,0,0-.29,2.29,1.35,1.35,0,0,1-.14-.61,4.38,4.38,0,0,1,1.8-4,4.52,4.52,0,0,1,3.37-.76l-.23.2a5.47,5.47,0,0,1,.67-2.57,6.59,6.59,0,0,1,5.22-3.37,7.52,7.52,0,0,1,3.19.47,9.25,9.25,0,0,1,4,2.89l-.19,0a2.5,2.5,0,0,1,1.24-1.1C124.39,97.18,124.6,97.18,124.6,97.2Z" style="fill:#455a64"></path><path d="M113.37,163.06c2.09,8,14.65,9.53,24.68-1.87,0,0,13.12,5.88,17.13,8.67,3.13,2.18-15.07,82-15.07,82l-2.87,31.71s-8.23,2.06-13.09.2c-9.75-3.73-22.29-13.48-27.38-12.26-38.28,9.16-25.67-8-25.67-8l11-33.35L93.54,187l6.86-19.91Z" style="fill:#455a64"></path><path d="M72.83,258.32a5.58,5.58,0,0,1,.19-.78c.17-.55.38-1.28.65-2.19.6-1.95,1.44-4.69,2.48-8s2.33-7.43,3.73-11.9l2.22-7,1.18-3.71c.38-1.26.65-2.58,1-3.89,2.59-10.49,4.94-20,6.65-26.93.87-3.4,1.57-6.17,2.07-8.15.25-.92.45-1.66.59-2.21a5.41,5.41,0,0,1,.24-.76,4.56,4.56,0,0,1-.13.78c-.13.56-.29,1.31-.5,2.24-.46,2-1.11,4.77-1.91,8.19-1.68,7-4,16.47-6.51,27-.33,1.31-.6,2.63-1,3.89s-.8,2.5-1.19,3.71l-2.25,7L76.5,247.42c-1.1,3.33-2,6.05-2.63,8l-.75,2.16A4.54,4.54,0,0,1,72.83,258.32Z" style="fill:#263238"></path><path d="M140.51,192.36c0,4.52-.94,40.84-.94,40.84l-11.36,14.07L105.13,267.2l12.44,17.94s42.72-36.46,44.42-40.57c1.11-2.68.64-42.57,1.1-63,.18-7.88-8.11-12.25-12.38-14.38" style="fill:#455a64"></path><path d="M150.71,167.23s.21.08.6.27,1,.47,1.72.88a27.71,27.71,0,0,1,6.07,4.26,14.27,14.27,0,0,1,3.16,4.33,10.89,10.89,0,0,1,.87,3c.08.53.06,1.08.1,1.64s0,1.11,0,1.69c-.08,4.57-.12,9.78-.14,15.53s0,12.07-.06,18.84,0,14-.3,21.62l-.15,2.88-.13,1.46c0,.24-.1.5-.15.75a1.67,1.67,0,0,1-.3.73,39.89,39.89,0,0,1-4,4.41c-2.84,2.8-5.84,5.56-8.9,8.35-6.13,5.58-12.57,11.25-19.19,17l-12.14,10.47-.22.19-.16-.24c-4.28-6.17-8.44-12.17-12.43-17.94l-.13-.19L105,267l23.1-19.91,0,0,11.38-14,0,.11c.32-12.59.59-22.79.77-29.87.1-3.51.18-6.25.24-8.12,0-.92.06-1.62.07-2.12s0-.72,0-.72,0,.25,0,.72,0,1.2,0,2.12c0,1.87-.08,4.61-.14,8.12-.14,7.08-.35,17.29-.6,29.88v.07l0,0c-3.49,4.33-7.28,9.05-11.33,14.09h0v0l-23.07,19.94,0-.33L117.78,285l-.38-.05,12.13-10.47c6.63-5.77,13.07-11.44,19.2-17,3.06-2.79,6.05-5.55,8.89-8.34a38.58,38.58,0,0,0,3.94-4.31,7.16,7.16,0,0,0,.52-2.72l.15-2.86c.27-7.6.29-14.83.35-21.6s.09-13.08.12-18.84.11-11,.22-15.54l0-1.69c0-.54,0-1.08-.09-1.6a10.47,10.47,0,0,0-.83-2.9,14.09,14.09,0,0,0-3.07-4.29,28.8,28.8,0,0,0-6-4.31c-.74-.42-1.31-.72-1.69-.92Z" style="fill:#263238"></path><path d="M89.69,273.06c.41,0,3.31.56,5.39-.69a29.69,29.69,0,0,1,9.12-2.9h2.49l8.77,13.19-5,9.82a16.8,16.8,0,0,1-9.13-5.73,16.1,16.1,0,0,1-3.73-10.37s-4.45,1.39-6.92.83S87,275,87.61,274A2.65,2.65,0,0,1,89.69,273.06Z" style="fill:#ffbf9d"></path></g></svg>