<svg xmlns="http://www.w3.org/2000/svg" viewBox="0 0 500 500"><g id="freepik--Shadows--inject-15"><polygon id="freepik--Shadow--inject-15" points="131.02 412.73 250 344.05 368.97 412.73 250 481.42 131.02 412.73" style="fill:#e0e0e0"></polygon></g><g id="freepik--Sunburst--inject-15"><g id="freepik--Sparkles--inject-15"><path d="M249.35,233.51c-1.57-3.52-1.69-7-1.69-10.57l-.12-10.58c-.12-7-.08-14.09-.08-21.14.07-14.1.29-28.2.49-42.29s.43-28.2.75-42.29l.5-21.15c.21-7,.38-14.1.64-21.15h.32c.26,7,.43,14.1.64,21.15l.5,21.15c.32,14.09.49,28.19.75,42.29s.42,28.19.49,42.29c0,7.05,0,14.1-.08,21.14l-.12,10.58c0,3.52-.12,7.05-1.69,10.57Z" style="fill:#BA68C8"></path><path d="M249.36,233.62c-2.16-3.2-2.89-6.65-3.5-10.12l-2-10.39c-1.34-6.92-2.52-13.87-3.74-20.81-2.38-13.89-4.61-27.81-6.86-41.73s-4.48-27.84-6.61-41.78L223.5,87.88c-1-7-2.06-13.95-3-20.94l.31,0c1.48,6.89,2.87,13.81,4.31,20.71l4.16,20.74c2.76,13.82,5.38,27.68,8.08,41.52s5.31,27.69,7.83,41.56c1.22,6.94,2.49,13.87,3.59,20.84l1.72,10.43c.61,3.47,1.1,7,.17,10.71Z" style="fill:#BA68C8"></path><path d="M249.39,233.73c-2.68-2.77-4-6-5.21-9.36l-3.73-9.89c-2.52-6.58-4.89-13.22-7.3-19.84-4.76-13.27-9.37-26.6-14-39.91s-9.24-26.64-13.76-40l-6.77-20C196.41,88,194.16,81.31,192,74.6l.3-.11c2.66,6.54,5.23,13.1,7.84,19.65l7.7,19.7C213,127,217.93,140.17,223,153.33s10,26.35,14.93,39.57c2.41,6.62,4.87,13.23,7.16,19.9l3.5,10c1.21,3.32,2.3,6.67,2,10.52Z" style="fill:#BA68C8"></path><path d="M249.44,233.83c-3.12-2.26-5-5.25-6.75-8.31l-5.4-9.09c-3.63-6.05-7.11-12.17-10.63-18.28-7-12.24-13.85-24.56-20.72-36.87s-13.73-24.63-20.5-37l-10.15-18.56c-3.33-6.21-6.71-12.4-10-18.63l.27-.16c3.75,6,7.42,12,11.14,18l11,18.06c7.32,12,14.52,24.17,21.79,36.26s14.46,24.2,21.57,36.38c3.53,6.1,7.09,12.18,10.51,18.35l5.18,9.21c1.76,3,3.42,6.17,3.82,10Z" style="fill:#BA68C8"></path><path d="M249.51,233.92c-3.47-1.68-5.83-4.31-8.1-7l-6.89-8c-4.62-5.32-9.12-10.75-13.65-16.15C211.86,191.9,203,181,194.06,170s-17.79-21.87-26.61-32.88l-13.21-16.51c-4.37-5.54-8.77-11-13.1-16.62l.24-.2c4.73,5.23,9.39,10.52,14.09,15.78l14,15.88c9.31,10.6,18.5,21.28,27.76,31.92s18.45,21.33,27.56,32.08c4.53,5.4,9.1,10.77,13.54,16.25l6.7,8.18c2.26,2.7,4.43,5.47,5.49,9.18Z" style="fill:#BA68C8"></path><path d="M249.58,234c-3.71-1.06-6.48-3.23-9.18-5.49l-8.18-6.71c-5.48-4.43-10.85-9-16.25-13.53-10.75-9.12-21.41-18.35-32.08-27.56S162.57,162.26,152,153l-15.88-14c-5.26-4.7-10.55-9.36-15.78-14.09l.2-.24c5.57,4.33,11.08,8.73,16.62,13.1L153.64,151c11,8.82,21.92,17.75,32.88,26.61s21.87,17.8,32.71,26.81c5.4,4.53,10.83,9,16.16,13.65l8,6.89c2.7,2.27,5.32,4.63,7,8.09Z" style="fill:#BA68C8"></path><path d="M249.68,234.07c-3.84-.4-7-2.06-10-3.82l-9.21-5.18c-6.17-3.42-12.25-7-18.35-10.51-12.18-7.11-24.28-14.35-36.38-21.57s-24.21-14.47-36.26-21.79l-18.06-11c-6-3.72-12-7.39-18-11.14l.16-.27c6.23,3.3,12.42,6.68,18.63,10L140.77,169c12.37,6.77,24.67,13.67,37,20.5s24.63,13.73,36.87,20.72c6.11,3.52,12.24,7,18.28,10.63l9.09,5.4c3.06,1.76,6.05,3.63,8.31,6.75Z" style="fill:#BA68C8"></path><path d="M249.78,234.12c-3.85.27-7.2-.82-10.52-2l-10-3.5c-6.67-2.29-13.28-4.75-19.9-7.16-13.22-4.89-26.39-9.92-39.57-14.93s-26.35-10-39.49-15.16l-19.7-7.7C104.08,181,97.52,178.46,91,175.8l.11-.3c6.71,2.17,13.39,4.42,20.09,6.63l20,6.77c13.36,4.52,26.66,9.18,40,13.76s26.64,9.24,39.91,14c6.62,2.41,13.26,4.78,19.84,7.3l9.9,3.73c3.31,1.21,6.58,2.53,9.35,5.21Z" style="fill:#BA68C8"></path><path d="M249.89,234.15c-3.75.93-7.24.44-10.71-.17l-10.43-1.72c-7-1.1-13.9-2.37-20.84-3.59-13.87-2.52-27.72-5.19-41.56-7.83s-27.7-5.32-41.52-8.08l-20.74-4.16c-6.9-1.44-13.82-2.83-20.71-4.31l.05-.31c7,1,14,2,20.94,3l20.91,3.19c13.94,2.13,27.85,4.41,41.78,6.61s27.84,4.48,41.73,6.86c6.94,1.22,13.89,2.4,20.81,3.74l10.39,2c3.48.61,6.92,1.34,10.12,3.5Z" style="fill:#BA68C8"></path><path d="M250,234.16c-3.52,1.57-7.05,1.69-10.57,1.69l-10.58.12c-7,.12-14.09.08-21.14.08-14.1-.07-28.2-.29-42.29-.5s-28.2-.42-42.29-.74l-21.15-.5c-7-.21-14.1-.38-21.15-.64v-.32c7-.26,14.1-.43,21.15-.65l21.15-.49c14.09-.32,28.19-.49,42.29-.75s28.19-.42,42.29-.49c7,0,14.1,0,21.14.08l10.58.12c3.52,0,7,.12,10.57,1.69Z" style="fill:#BA68C8"></path><path d="M250.11,234.15c-3.2,2.16-6.64,2.89-10.12,3.5l-10.39,2c-6.92,1.34-13.87,2.52-20.81,3.74-13.89,2.38-27.81,4.61-41.73,6.86s-27.84,4.48-41.78,6.61L104.37,260c-7,1-14,2.06-20.94,3l-.05-.31c6.89-1.48,13.81-2.87,20.71-4.31l20.74-4.16c13.82-2.76,27.68-5.38,41.52-8.08s27.69-5.31,41.56-7.83c6.94-1.22,13.88-2.49,20.84-3.59L239.18,233c3.47-.61,7-1.1,10.71-.17Z" style="fill:#BA68C8"></path><path d="M250.22,234.12c-2.77,2.68-6,4-9.35,5.21l-9.9,3.73c-6.58,2.52-13.22,4.89-19.84,7.3-13.27,4.76-26.6,9.37-39.91,14s-26.64,9.24-40,13.76l-20,6.77c-6.7,2.21-13.38,4.46-20.09,6.62l-.11-.29c6.54-2.66,13.1-5.23,19.65-7.84l19.7-7.7c13.14-5.12,26.33-10.1,39.49-15.16s26.35-10,39.57-14.93c6.62-2.41,13.23-4.87,19.9-7.16l10-3.5c3.32-1.21,6.67-2.3,10.52-2Z" style="fill:#BA68C8"></path><path d="M250.32,234.07c-2.26,3.12-5.25,5-8.31,6.75l-9.09,5.4c-6,3.63-12.17,7.11-18.28,10.63-12.24,7-24.56,13.85-36.87,20.72s-24.63,13.73-37,20.5l-18.56,10.15c-6.21,3.33-12.4,6.71-18.63,10l-.16-.27c6-3.75,12-7.42,18-11.14l18.06-11c12.05-7.32,24.18-14.52,36.26-21.79s24.2-14.46,36.38-21.57c6.1-3.53,12.18-7.09,18.35-10.51l9.21-5.18c3.06-1.76,6.17-3.42,10-3.82Z" style="fill:#BA68C8"></path><path d="M250.41,234c-1.68,3.47-4.3,5.83-7,8.1l-8,6.89c-5.33,4.62-10.76,9.12-16.16,13.65-10.84,9-21.78,17.9-32.71,26.81s-21.87,17.79-32.88,26.61l-16.51,13.21c-5.54,4.37-11,8.77-16.62,13.1l-.2-.24c5.23-4.73,10.52-9.39,15.78-14.09l15.88-14c10.6-9.31,21.29-18.5,31.92-27.76s21.33-18.45,32.08-27.56c5.4-4.53,10.77-9.1,16.25-13.54l8.18-6.7c2.7-2.26,5.47-4.43,9.18-5.5Z" style="fill:#BA68C8"></path><path d="M250.49,233.92c-1.06,3.71-3.23,6.49-5.49,9.19l-6.7,8.18c-4.44,5.48-9,10.85-13.54,16.25-9.11,10.75-18.35,21.41-27.56,32.08s-18.45,21.32-27.76,31.92l-14,15.88c-4.7,5.26-9.36,10.55-14.09,15.78l-.24-.2c4.33-5.57,8.73-11.08,13.1-16.62l13.21-16.51c8.82-11,17.75-21.92,26.61-32.88s17.8-21.87,26.81-32.71c4.53-5.4,9-10.83,13.65-16.16l6.89-8c2.27-2.7,4.63-5.32,8.1-7Z" style="fill:#BA68C8"></path><path d="M250.56,233.83c-.4,3.84-2.06,6.95-3.82,10l-5.18,9.21c-3.42,6.17-7,12.25-10.51,18.35-7.11,12.18-14.35,24.28-21.57,36.38S195,332,187.69,344l-11,18.07c-3.72,6-7.39,12-11.14,18l-.27-.16c3.3-6.23,6.68-12.42,10-18.63l10.15-18.56c6.77-12.37,13.67-24.67,20.5-37s13.73-24.63,20.72-36.87c3.52-6.11,7-12.24,10.63-18.28l5.4-9.09c1.76-3.06,3.63-6.05,6.75-8.31Z" style="fill:#BA68C8"></path><path d="M250.61,233.73c.27,3.85-.82,7.2-2,10.52l-3.5,10c-2.29,6.67-4.75,13.27-7.16,19.9C233,287.34,228,300.51,223,313.69S213,340,207.83,353.18l-7.7,19.7c-2.61,6.55-5.18,13.11-7.84,19.65l-.3-.11c2.17-6.71,4.42-13.39,6.63-20.09l6.77-20c4.52-13.36,9.18-26.66,13.76-40s9.24-26.64,14-39.91c2.41-6.62,4.78-13.26,7.3-19.84l3.73-9.9c1.21-3.31,2.53-6.58,5.21-9.35Z" style="fill:#BA68C8"></path><path d="M250.64,233.62c.93,3.75.44,7.24-.17,10.71l-1.72,10.43c-1.1,7-2.37,13.9-3.59,20.84-2.52,13.87-5.19,27.71-7.83,41.56s-5.32,27.69-8.08,41.52l-4.16,20.74c-1.44,6.9-2.83,13.82-4.31,20.71l-.31-.05c1-7,2-14,3-20.94l3.19-20.91c2.13-13.94,4.41-27.85,6.61-41.78s4.48-27.84,6.86-41.73c1.22-6.94,2.4-13.89,3.74-20.81l2-10.39c.61-3.48,1.34-6.92,3.5-10.12Z" style="fill:#BA68C8"></path><path d="M250.65,233.51c1.57,3.52,1.69,7.05,1.69,10.57l.12,10.58c.12,7,.08,14.09.08,21.14-.07,14.1-.29,28.2-.49,42.29s-.43,28.2-.75,42.29l-.5,21.15c-.21,7.05-.38,14.1-.64,21.15h-.32c-.26-7.05-.43-14.1-.64-21.15l-.5-21.15c-.32-14.09-.49-28.19-.75-42.29s-.42-28.19-.49-42.29c0-7.05,0-14.1.08-21.14l.12-10.58c0-3.52.12-7.05,1.69-10.57Z" style="fill:#BA68C8"></path><path d="M250.64,233.4c2.16,3.2,2.89,6.64,3.5,10.12l2,10.39c1.34,6.92,2.52,13.87,3.74,20.81,2.38,13.89,4.61,27.81,6.86,41.73s4.48,27.84,6.61,41.78l3.19,20.91c1,7,2.06,13.95,3,20.94l-.31.05c-1.48-6.89-2.87-13.81-4.31-20.71l-4.16-20.74c-2.76-13.83-5.38-27.68-8.08-41.52s-5.31-27.69-7.83-41.56c-1.22-6.94-2.49-13.88-3.59-20.84l-1.72-10.43c-.61-3.47-1.1-7-.17-10.71Z" style="fill:#BA68C8"></path><path d="M250.61,233.29c2.68,2.77,4,6,5.21,9.35l3.73,9.9c2.52,6.58,4.89,13.22,7.3,19.84,4.76,13.27,9.37,26.6,14,39.91s9.24,26.64,13.76,40l6.77,20c2.21,6.7,4.46,13.38,6.63,20.09l-.3.11c-2.66-6.54-5.23-13.1-7.84-19.65l-7.7-19.7c-5.12-13.14-10.1-26.33-15.16-39.49s-10-26.35-14.93-39.57c-2.41-6.63-4.87-13.23-7.16-19.9l-3.5-10c-1.21-3.32-2.3-6.67-2-10.52Z" style="fill:#BA68C8"></path><path d="M250.56,233.19c3.12,2.26,5,5.25,6.75,8.31l5.4,9.09c3.63,6,7.11,12.17,10.63,18.28,7,12.24,13.85,24.56,20.72,36.87s13.73,24.63,20.5,37l10.15,18.56c3.33,6.21,6.71,12.4,10,18.63l-.27.16c-3.75-6-7.42-12-11.14-18l-11-18.07c-7.32-12-14.52-24.17-21.79-36.25S276.06,283.58,269,271.4c-3.53-6.1-7.09-12.18-10.51-18.35l-5.18-9.21c-1.76-3.06-3.42-6.17-3.82-10Z" style="fill:#BA68C8"></path><path d="M250.49,233.09c3.47,1.69,5.83,4.31,8.1,7l6.89,8c4.62,5.33,9.12,10.76,13.65,16.16,9,10.84,17.9,21.78,26.81,32.71s17.79,21.87,26.61,32.88l13.21,16.51c4.37,5.54,8.77,11.05,13.1,16.62l-.24.2c-4.73-5.23-9.39-10.52-14.09-15.78l-14-15.88c-9.31-10.6-18.5-21.29-27.76-31.92s-18.45-21.33-27.56-32.08c-4.53-5.4-9.1-10.77-13.54-16.25l-6.7-8.18c-2.26-2.7-4.43-5.48-5.49-9.19Z" style="fill:#BA68C8"></path><path d="M250.41,233c3.72,1.07,6.49,3.24,9.19,5.5l8.18,6.7c5.48,4.44,10.85,9,16.25,13.54,10.75,9.11,21.41,18.34,32.08,27.56s21.32,18.45,31.92,27.76l15.88,14c5.26,4.7,10.55,9.36,15.78,14.09l-.2.24c-5.57-4.33-11.08-8.73-16.62-13.1l-16.51-13.21c-11-8.82-21.92-17.75-32.88-26.61s-21.87-17.8-32.71-26.81c-5.4-4.53-10.83-9-16.16-13.65l-8-6.89c-2.7-2.27-5.32-4.63-7-8.1Z" style="fill:#BA68C8"></path><path d="M250.32,233c3.84.4,6.95,2.06,10,3.82l9.21,5.18c6.17,3.42,12.25,7,18.35,10.51,12.18,7.11,24.28,14.35,36.38,21.57s24.21,14.47,36.26,21.79l18.06,11c6,3.72,12,7.39,18,11.14l-.16.27c-6.23-3.3-12.42-6.68-18.63-10l-18.56-10.15c-12.37-6.77-24.67-13.67-37-20.5s-24.63-13.73-36.87-20.72c-6.11-3.52-12.24-7-18.28-10.63l-9.09-5.4c-3.06-1.76-6.05-3.63-8.31-6.75Z" style="fill:#BA68C8"></path><path d="M250.22,232.9c3.85-.27,7.2.82,10.52,2l10,3.5c6.67,2.29,13.28,4.75,19.9,7.16,13.22,4.89,26.39,9.91,39.57,14.93s26.35,10,39.49,15.16l19.7,7.7c6.55,2.61,13.11,5.18,19.65,7.84l-.11.29c-6.71-2.16-13.39-4.41-20.09-6.62l-20-6.77c-13.36-4.52-26.66-9.18-40-13.76s-26.64-9.24-39.91-14c-6.62-2.41-13.26-4.78-19.84-7.3l-9.9-3.73c-3.31-1.21-6.58-2.53-9.35-5.21Z" style="fill:#BA68C8"></path><path d="M250.11,232.87c3.75-.93,7.24-.44,10.71.17l10.43,1.72c7,1.1,13.9,2.37,20.84,3.59,13.87,2.52,27.72,5.19,41.56,7.83s27.69,5.32,41.52,8.08l20.74,4.16c6.9,1.44,13.82,2.83,20.71,4.31l-.05.31c-7-1-14-2-20.94-3l-20.91-3.19c-13.94-2.13-27.85-4.41-41.78-6.61s-27.84-4.48-41.73-6.86c-6.94-1.22-13.89-2.4-20.81-3.74l-10.39-2c-3.48-.61-6.92-1.34-10.12-3.5Z" style="fill:#BA68C8"></path><path d="M250,232.86c3.52-1.57,7.05-1.69,10.57-1.69l10.58-.12c7-.12,14.09-.08,21.14-.08,14.1.07,28.2.29,42.29.49s28.2.43,42.29.75l21.15.49c7.05.22,14.1.39,21.15.65v.32c-7.05.26-14.1.43-21.15.64l-21.15.5c-14.09.32-28.19.49-42.29.74s-28.19.43-42.29.5c-7.05,0-14.1,0-21.14-.08l-10.58-.12c-3.52,0-7-.12-10.57-1.69Z" style="fill:#BA68C8"></path><path d="M249.89,232.87c3.2-2.16,6.64-2.89,10.12-3.5l10.39-2c6.92-1.34,13.87-2.52,20.81-3.74,13.89-2.38,27.81-4.61,41.73-6.86s27.84-4.48,41.78-6.61L395.63,207c7-1,13.95-2.06,20.94-3l.05.31c-6.89,1.48-13.81,2.87-20.71,4.31l-20.74,4.16c-13.83,2.76-27.68,5.38-41.52,8.08s-27.69,5.31-41.56,7.83c-6.94,1.22-13.88,2.49-20.84,3.59L260.82,234c-3.47.61-7,1.1-10.71.17Z" style="fill:#BA68C8"></path><path d="M249.78,232.9c2.77-2.68,6-4,9.35-5.21L269,224c6.58-2.52,13.22-4.89,19.84-7.3,13.27-4.76,26.6-9.37,39.91-14s26.64-9.24,40-13.76l20-6.77c6.7-2.21,13.38-4.46,20.09-6.63l.11.3c-6.54,2.66-13.1,5.22-19.65,7.84l-19.7,7.7c-13.14,5.12-26.33,10.1-39.49,15.16s-26.35,10-39.57,14.93c-6.62,2.41-13.23,4.87-19.9,7.16l-10,3.5c-3.32,1.21-6.67,2.3-10.52,2Z" style="fill:#BA68C8"></path><path d="M249.68,233c2.26-3.12,5.25-5,8.31-6.75l9.09-5.4c6-3.63,12.17-7.11,18.28-10.63,12.24-7,24.56-13.85,36.87-20.72s24.63-13.73,37-20.5l18.56-10.15c6.21-3.33,12.4-6.71,18.63-10l.16.27c-6,3.75-12,7.42-18,11.14l-18.06,11c-12,7.32-24.18,14.52-36.26,21.79s-24.2,14.46-36.38,21.57c-6.1,3.53-12.18,7.09-18.35,10.51l-9.21,5.18c-3.06,1.76-6.17,3.42-10,3.82Z" style="fill:#BA68C8"></path><path d="M249.58,233c1.69-3.46,4.31-5.82,7-8.09l8-6.89c5.33-4.62,10.76-9.12,16.16-13.65,10.84-9,21.78-17.9,32.71-26.81s21.87-17.79,32.88-26.61l16.51-13.21c5.54-4.37,11.05-8.77,16.62-13.1l.2.24c-5.23,4.73-10.52,9.39-15.78,14.09L348,153c-10.6,9.31-21.29,18.5-31.92,27.76S294.78,199.15,284,208.27c-5.4,4.53-10.77,9.1-16.25,13.53l-8.18,6.71c-2.7,2.26-5.47,4.43-9.19,5.49Z" style="fill:#BA68C8"></path><path d="M249.51,233.09c1.06-3.71,3.23-6.48,5.49-9.18l6.7-8.18c4.44-5.48,9-10.85,13.54-16.25,9.11-10.75,18.34-21.41,27.56-32.08s18.45-21.32,27.76-31.92l14-15.88c4.7-5.26,9.36-10.55,14.09-15.78l.24.2c-4.33,5.57-8.73,11.08-13.1,16.62l-13.21,16.51c-8.82,11-17.75,21.92-26.61,32.88s-17.8,21.87-26.81,32.71c-4.53,5.4-9,10.83-13.65,16.15l-6.89,8c-2.27,2.7-4.63,5.33-8.1,7Z" style="fill:#BA68C8"></path><path d="M249.44,233.19c.4-3.84,2.06-7,3.82-10l5.18-9.21c3.42-6.17,7-12.25,10.51-18.35,7.11-12.18,14.35-24.28,21.57-36.38S305,135,312.31,123l11-18.06c3.72-6,7.39-12,11.14-18l.27.16c-3.3,6.23-6.68,12.42-10,18.63l-10.15,18.56c-6.77,12.37-13.67,24.67-20.5,37s-13.73,24.63-20.72,36.87c-3.52,6.11-7,12.23-10.63,18.28l-5.4,9.09c-1.76,3.06-3.63,6-6.75,8.31Z" style="fill:#BA68C8"></path><path d="M249.39,233.29c-.27-3.85.82-7.2,2-10.52l3.5-10c2.29-6.67,4.75-13.28,7.16-19.9C267,179.68,272,166.51,277,153.33s10-26.35,15.16-39.49l7.7-19.7c2.61-6.55,5.18-13.11,7.84-19.65l.3.11c-2.17,6.71-4.42,13.39-6.63,20.09l-6.77,20c-4.52,13.36-9.18,26.66-13.76,40s-9.24,26.64-14,39.91c-2.41,6.62-4.78,13.26-7.3,19.84l-3.73,9.89c-1.21,3.32-2.53,6.59-5.21,9.36Z" style="fill:#BA68C8"></path><path d="M249.36,233.4c-.93-3.75-.44-7.24.17-10.71l1.72-10.43c1.1-7,2.37-13.9,3.59-20.84,2.52-13.87,5.19-27.72,7.83-41.56s5.32-27.7,8.08-41.52l4.16-20.74c1.44-6.9,2.83-13.82,4.31-20.71l.31,0c-1,7-2,14-3,20.94l-3.19,20.91c-2.13,13.94-4.41,27.85-6.61,41.78s-4.48,27.84-6.86,41.73c-1.22,6.94-2.4,13.89-3.74,20.81l-2,10.39c-.61,3.47-1.34,6.92-3.5,10.12Z" style="fill:#BA68C8"></path><g style="opacity:0.9"><path d="M249.35,233.51c-1.57-3.52-1.69-7-1.69-10.57l-.12-10.58c-.12-7-.08-14.09-.08-21.14.07-14.1.29-28.2.49-42.29s.43-28.2.75-42.29l.5-21.15c.21-7,.38-14.1.64-21.15h.32c.26,7,.43,14.1.64,21.15l.5,21.15c.32,14.09.49,28.19.75,42.29s.42,28.19.49,42.29c0,7.05,0,14.1-.08,21.14l-.12,10.58c0,3.52-.12,7.05-1.69,10.57Z" style="fill:#fff"></path><path d="M249.36,233.62c-2.16-3.2-2.89-6.65-3.5-10.12l-2-10.39c-1.34-6.92-2.52-13.87-3.74-20.81-2.38-13.89-4.61-27.81-6.86-41.73s-4.48-27.84-6.61-41.78L223.5,87.88c-1-7-2.06-13.95-3-20.94l.31,0c1.48,6.89,2.87,13.81,4.31,20.71l4.16,20.74c2.76,13.82,5.38,27.68,8.08,41.52s5.31,27.69,7.83,41.56c1.22,6.94,2.49,13.87,3.59,20.84l1.72,10.43c.61,3.47,1.1,7,.17,10.71Z" style="fill:#fff"></path><path d="M249.39,233.73c-2.68-2.77-4-6-5.21-9.36l-3.73-9.89c-2.52-6.58-4.89-13.22-7.3-19.84-4.76-13.27-9.37-26.6-14-39.91s-9.24-26.64-13.76-40l-6.77-20C196.41,88,194.16,81.31,192,74.6l.3-.11c2.66,6.54,5.23,13.1,7.84,19.65l7.7,19.7C213,127,217.93,140.17,223,153.33s10,26.35,14.93,39.57c2.41,6.62,4.87,13.23,7.16,19.9l3.5,10c1.21,3.32,2.3,6.67,2,10.52Z" style="fill:#fff"></path><path d="M249.44,233.83c-3.12-2.26-5-5.25-6.75-8.31l-5.4-9.09c-3.63-6.05-7.11-12.17-10.63-18.28-7-12.24-13.85-24.56-20.72-36.87s-13.73-24.63-20.5-37l-10.15-18.56c-3.33-6.21-6.71-12.4-10-18.63l.27-.16c3.75,6,7.42,12,11.14,18l11,18.06c7.32,12,14.52,24.17,21.79,36.26s14.46,24.2,21.57,36.38c3.53,6.1,7.09,12.18,10.51,18.35l5.18,9.21c1.76,3,3.42,6.17,3.82,10Z" style="fill:#fff"></path><path d="M249.51,233.92c-3.47-1.68-5.83-4.31-8.1-7l-6.89-8c-4.62-5.32-9.12-10.75-13.65-16.15C211.86,191.9,203,181,194.06,170s-17.79-21.87-26.61-32.88l-13.21-16.51c-4.37-5.54-8.77-11-13.1-16.62l.24-.2c4.73,5.23,9.39,10.52,14.09,15.78l14,15.88c9.31,10.6,18.5,21.28,27.76,31.92s18.45,21.33,27.56,32.08c4.53,5.4,9.1,10.77,13.54,16.25l6.7,8.18c2.26,2.7,4.43,5.47,5.49,9.18Z" style="fill:#fff"></path><path d="M249.58,234c-3.71-1.06-6.48-3.23-9.18-5.49l-8.18-6.71c-5.48-4.43-10.85-9-16.25-13.53-10.75-9.12-21.41-18.35-32.08-27.56S162.57,162.26,152,153l-15.88-14c-5.26-4.7-10.55-9.36-15.78-14.09l.2-.24c5.57,4.33,11.08,8.73,16.62,13.1L153.64,151c11,8.82,21.92,17.75,32.88,26.61s21.87,17.8,32.71,26.81c5.4,4.53,10.83,9,16.16,13.65l8,6.89c2.7,2.27,5.32,4.63,7,8.09Z" style="fill:#fff"></path><path d="M249.68,234.07c-3.84-.4-7-2.06-10-3.82l-9.21-5.18c-6.17-3.42-12.25-7-18.35-10.51-12.18-7.11-24.28-14.35-36.38-21.57s-24.21-14.47-36.26-21.79l-18.06-11c-6-3.72-12-7.39-18-11.14l.16-.27c6.23,3.3,12.42,6.68,18.63,10L140.77,169c12.37,6.77,24.67,13.67,37,20.5s24.63,13.73,36.87,20.72c6.11,3.52,12.24,7,18.28,10.63l9.09,5.4c3.06,1.76,6.05,3.63,8.31,6.75Z" style="fill:#fff"></path><path d="M249.78,234.12c-3.85.27-7.2-.82-10.52-2l-10-3.5c-6.67-2.29-13.28-4.75-19.9-7.16-13.22-4.89-26.39-9.92-39.57-14.93s-26.35-10-39.49-15.16l-19.7-7.7C104.08,181,97.52,178.46,91,175.8l.11-.3c6.71,2.17,13.39,4.42,20.09,6.63l20,6.77c13.36,4.52,26.66,9.18,40,13.76s26.64,9.24,39.91,14c6.62,2.41,13.26,4.78,19.84,7.3l9.9,3.73c3.31,1.21,6.58,2.53,9.35,5.21Z" style="fill:#fff"></path><path d="M249.89,234.15c-3.75.93-7.24.44-10.71-.17l-10.43-1.72c-7-1.1-13.9-2.37-20.84-3.59-13.87-2.52-27.72-5.19-41.56-7.83s-27.7-5.32-41.52-8.08l-20.74-4.16c-6.9-1.44-13.82-2.83-20.71-4.31l.05-.31c7,1,14,2,20.94,3l20.91,3.19c13.94,2.13,27.85,4.41,41.78,6.61s27.84,4.48,41.73,6.86c6.94,1.22,13.89,2.4,20.81,3.74l10.39,2c3.48.61,6.92,1.34,10.12,3.5Z" style="fill:#fff"></path><path d="M250,234.16c-3.52,1.57-7.05,1.69-10.57,1.69l-10.58.12c-7,.12-14.09.08-21.14.08-14.1-.07-28.2-.29-42.29-.5s-28.2-.42-42.29-.74l-21.15-.5c-7-.21-14.1-.38-21.15-.64v-.32c7-.26,14.1-.43,21.15-.65l21.15-.49c14.09-.32,28.19-.49,42.29-.75s28.19-.42,42.29-.49c7,0,14.1,0,21.14.08l10.58.12c3.52,0,7,.12,10.57,1.69Z" style="fill:#fff"></path><path d="M250.11,234.15c-3.2,2.16-6.64,2.89-10.12,3.5l-10.39,2c-6.92,1.34-13.87,2.52-20.81,3.74-13.89,2.38-27.81,4.61-41.73,6.86s-27.84,4.48-41.78,6.61L104.37,260c-7,1-14,2.06-20.94,3l-.05-.31c6.89-1.48,13.81-2.87,20.71-4.31l20.74-4.16c13.82-2.76,27.68-5.38,41.52-8.08s27.69-5.31,41.56-7.83c6.94-1.22,13.88-2.49,20.84-3.59L239.18,233c3.47-.61,7-1.1,10.71-.17Z" style="fill:#fff"></path><path d="M250.22,234.12c-2.77,2.68-6,4-9.35,5.21l-9.9,3.73c-6.58,2.52-13.22,4.89-19.84,7.3-13.27,4.76-26.6,9.37-39.91,14s-26.64,9.24-40,13.76l-20,6.77c-6.7,2.21-13.38,4.46-20.09,6.62l-.11-.29c6.54-2.66,13.1-5.23,19.65-7.84l19.7-7.7c13.14-5.12,26.33-10.1,39.49-15.16s26.35-10,39.57-14.93c6.62-2.41,13.23-4.87,19.9-7.16l10-3.5c3.32-1.21,6.67-2.3,10.52-2Z" style="fill:#fff"></path><path d="M250.32,234.07c-2.26,3.12-5.25,5-8.31,6.75l-9.09,5.4c-6,3.63-12.17,7.11-18.28,10.63-12.24,7-24.56,13.85-36.87,20.72s-24.63,13.73-37,20.5l-18.56,10.15c-6.21,3.33-12.4,6.71-18.63,10l-.16-.27c6-3.75,12-7.42,18-11.14l18.06-11c12.05-7.32,24.18-14.52,36.26-21.79s24.2-14.46,36.38-21.57c6.1-3.53,12.18-7.09,18.35-10.51l9.21-5.18c3.06-1.76,6.17-3.42,10-3.82Z" style="fill:#fff"></path><path d="M250.41,234c-1.68,3.47-4.3,5.83-7,8.1l-8,6.89c-5.33,4.62-10.76,9.12-16.16,13.65-10.84,9-21.78,17.9-32.71,26.81s-21.87,17.79-32.88,26.61l-16.51,13.21c-5.54,4.37-11,8.77-16.62,13.1l-.2-.24c5.23-4.73,10.52-9.39,15.78-14.09l15.88-14c10.6-9.31,21.29-18.5,31.92-27.76s21.33-18.45,32.08-27.56c5.4-4.53,10.77-9.1,16.25-13.54l8.18-6.7c2.7-2.26,5.47-4.43,9.18-5.5Z" style="fill:#fff"></path><path d="M250.49,233.92c-1.06,3.71-3.23,6.49-5.49,9.19l-6.7,8.18c-4.44,5.48-9,10.85-13.54,16.25-9.11,10.75-18.35,21.41-27.56,32.08s-18.45,21.32-27.76,31.92l-14,15.88c-4.7,5.26-9.36,10.55-14.09,15.78l-.24-.2c4.33-5.57,8.73-11.08,13.1-16.62l13.21-16.51c8.82-11,17.75-21.92,26.61-32.88s17.8-21.87,26.81-32.71c4.53-5.4,9-10.83,13.65-16.16l6.89-8c2.27-2.7,4.63-5.32,8.1-7Z" style="fill:#fff"></path><path d="M250.56,233.83c-.4,3.84-2.06,6.95-3.82,10l-5.18,9.21c-3.42,6.17-7,12.25-10.51,18.35-7.11,12.18-14.35,24.28-21.57,36.38S195,332,187.69,344l-11,18.07c-3.72,6-7.39,12-11.14,18l-.27-.16c3.3-6.23,6.68-12.42,10-18.63l10.15-18.56c6.77-12.37,13.67-24.67,20.5-37s13.73-24.63,20.72-36.87c3.52-6.11,7-12.24,10.63-18.28l5.4-9.09c1.76-3.06,3.63-6.05,6.75-8.31Z" style="fill:#fff"></path><path d="M250.61,233.73c.27,3.85-.82,7.2-2,10.52l-3.5,10c-2.29,6.67-4.75,13.27-7.16,19.9C233,287.34,228,300.51,223,313.69S213,340,207.83,353.18l-7.7,19.7c-2.61,6.55-5.18,13.11-7.84,19.65l-.3-.11c2.17-6.71,4.42-13.39,6.63-20.09l6.77-20c4.52-13.36,9.18-26.66,13.76-40s9.24-26.64,14-39.91c2.41-6.62,4.78-13.26,7.3-19.84l3.73-9.9c1.21-3.31,2.53-6.58,5.21-9.35Z" style="fill:#fff"></path><path d="M250.64,233.62c.93,3.75.44,7.24-.17,10.71l-1.72,10.43c-1.1,7-2.37,13.9-3.59,20.84-2.52,13.87-5.19,27.71-7.83,41.56s-5.32,27.69-8.08,41.52l-4.16,20.74c-1.44,6.9-2.83,13.82-4.31,20.71l-.31-.05c1-7,2-14,3-20.94l3.19-20.91c2.13-13.94,4.41-27.85,6.61-41.78s4.48-27.84,6.86-41.73c1.22-6.94,2.4-13.89,3.74-20.81l2-10.39c.61-3.48,1.34-6.92,3.5-10.12Z" style="fill:#fff"></path><path d="M250.65,233.51c1.57,3.52,1.69,7.05,1.69,10.57l.12,10.58c.12,7,.08,14.09.08,21.14-.07,14.1-.29,28.2-.49,42.29s-.43,28.2-.75,42.29l-.5,21.15c-.21,7.05-.38,14.1-.64,21.15h-.32c-.26-7.05-.43-14.1-.64-21.15l-.5-21.15c-.32-14.09-.49-28.19-.75-42.29s-.42-28.19-.49-42.29c0-7.05,0-14.1.08-21.14l.12-10.58c0-3.52.12-7.05,1.69-10.57Z" style="fill:#fff"></path><path d="M250.64,233.4c2.16,3.2,2.89,6.64,3.5,10.12l2,10.39c1.34,6.92,2.52,13.87,3.74,20.81,2.38,13.89,4.61,27.81,6.86,41.73s4.48,27.84,6.61,41.78l3.19,20.91c1,7,2.06,13.95,3,20.94l-.31.05c-1.48-6.89-2.87-13.81-4.31-20.71l-4.16-20.74c-2.76-13.83-5.38-27.68-8.08-41.52s-5.31-27.69-7.83-41.56c-1.22-6.94-2.49-13.88-3.59-20.84l-1.72-10.43c-.61-3.47-1.1-7-.17-10.71Z" style="fill:#fff"></path><path d="M250.61,233.29c2.68,2.77,4,6,5.21,9.35l3.73,9.9c2.52,6.58,4.89,13.22,7.3,19.84,4.76,13.27,9.37,26.6,14,39.91s9.24,26.64,13.76,40l6.77,20c2.21,6.7,4.46,13.38,6.63,20.09l-.3.11c-2.66-6.54-5.23-13.1-7.84-19.65l-7.7-19.7c-5.12-13.14-10.1-26.33-15.16-39.49s-10-26.35-14.93-39.57c-2.41-6.63-4.87-13.23-7.16-19.9l-3.5-10c-1.21-3.32-2.3-6.67-2-10.52Z" style="fill:#fff"></path><path d="M250.56,233.19c3.12,2.26,5,5.25,6.75,8.31l5.4,9.09c3.63,6,7.11,12.17,10.63,18.28,7,12.24,13.85,24.56,20.72,36.87s13.73,24.63,20.5,37l10.15,18.56c3.33,6.21,6.71,12.4,10,18.63l-.27.16c-3.75-6-7.42-12-11.14-18l-11-18.07c-7.32-12-14.52-24.17-21.79-36.25S276.06,283.58,269,271.4c-3.53-6.1-7.09-12.18-10.51-18.35l-5.18-9.21c-1.76-3.06-3.42-6.17-3.82-10Z" style="fill:#fff"></path><path d="M250.49,233.09c3.47,1.69,5.83,4.31,8.1,7l6.89,8c4.62,5.33,9.12,10.76,13.65,16.16,9,10.84,17.9,21.78,26.81,32.71s17.79,21.87,26.61,32.88l13.21,16.51c4.37,5.54,8.77,11.05,13.1,16.62l-.24.2c-4.73-5.23-9.39-10.52-14.09-15.78l-14-15.88c-9.31-10.6-18.5-21.29-27.76-31.92s-18.45-21.33-27.56-32.08c-4.53-5.4-9.1-10.77-13.54-16.25l-6.7-8.18c-2.26-2.7-4.43-5.48-5.49-9.19Z" style="fill:#fff"></path><path d="M250.41,233c3.72,1.07,6.49,3.24,9.19,5.5l8.18,6.7c5.48,4.44,10.85,9,16.25,13.54,10.75,9.11,21.41,18.34,32.08,27.56s21.32,18.45,31.92,27.76l15.88,14c5.26,4.7,10.55,9.36,15.78,14.09l-.2.24c-5.57-4.33-11.08-8.73-16.62-13.1l-16.51-13.21c-11-8.82-21.92-17.75-32.88-26.61s-21.87-17.8-32.71-26.81c-5.4-4.53-10.83-9-16.16-13.65l-8-6.89c-2.7-2.27-5.32-4.63-7-8.1Z" style="fill:#fff"></path><path d="M250.32,233c3.84.4,6.95,2.06,10,3.82l9.21,5.18c6.17,3.42,12.25,7,18.35,10.51,12.18,7.11,24.28,14.35,36.38,21.57s24.21,14.47,36.26,21.79l18.06,11c6,3.72,12,7.39,18,11.14l-.16.27c-6.23-3.3-12.42-6.68-18.63-10l-18.56-10.15c-12.37-6.77-24.67-13.67-37-20.5s-24.63-13.73-36.87-20.72c-6.11-3.52-12.24-7-18.28-10.63l-9.09-5.4c-3.06-1.76-6.05-3.63-8.31-6.75Z" style="fill:#fff"></path><path d="M250.22,232.9c3.85-.27,7.2.82,10.52,2l10,3.5c6.67,2.29,13.28,4.75,19.9,7.16,13.22,4.89,26.39,9.91,39.57,14.93s26.35,10,39.49,15.16l19.7,7.7c6.55,2.61,13.11,5.18,19.65,7.84l-.11.29c-6.71-2.16-13.39-4.41-20.09-6.62l-20-6.77c-13.36-4.52-26.66-9.18-40-13.76s-26.64-9.24-39.91-14c-6.62-2.41-13.26-4.78-19.84-7.3l-9.9-3.73c-3.31-1.21-6.58-2.53-9.35-5.21Z" style="fill:#fff"></path><path d="M250.11,232.87c3.75-.93,7.24-.44,10.71.17l10.43,1.72c7,1.1,13.9,2.37,20.84,3.59,13.87,2.52,27.72,5.19,41.56,7.83s27.69,5.32,41.52,8.08l20.74,4.16c6.9,1.44,13.82,2.83,20.71,4.31l-.05.31c-7-1-14-2-20.94-3l-20.91-3.19c-13.94-2.13-27.85-4.41-41.78-6.61s-27.84-4.48-41.73-6.86c-6.94-1.22-13.89-2.4-20.81-3.74l-10.39-2c-3.48-.61-6.92-1.34-10.12-3.5Z" style="fill:#fff"></path><path d="M250,232.86c3.52-1.57,7.05-1.69,10.57-1.69l10.58-.12c7-.12,14.09-.08,21.14-.08,14.1.07,28.2.29,42.29.49s28.2.43,42.29.75l21.15.49c7.05.22,14.1.39,21.15.65v.32c-7.05.26-14.1.43-21.15.64l-21.15.5c-14.09.32-28.19.49-42.29.74s-28.19.43-42.29.5c-7.05,0-14.1,0-21.14-.08l-10.58-.12c-3.52,0-7-.12-10.57-1.69Z" style="fill:#fff"></path><path d="M249.89,232.87c3.2-2.16,6.64-2.89,10.12-3.5l10.39-2c6.92-1.34,13.87-2.52,20.81-3.74,13.89-2.38,27.81-4.61,41.73-6.86s27.84-4.48,41.78-6.61L395.63,207c7-1,13.95-2.06,20.94-3l.05.31c-6.89,1.48-13.81,2.87-20.71,4.31l-20.74,4.16c-13.83,2.76-27.68,5.38-41.52,8.08s-27.69,5.31-41.56,7.83c-6.94,1.22-13.88,2.49-20.84,3.59L260.82,234c-3.47.61-7,1.1-10.71.17Z" style="fill:#fff"></path><path d="M249.78,232.9c2.77-2.68,6-4,9.35-5.21L269,224c6.58-2.52,13.22-4.89,19.84-7.3,13.27-4.76,26.6-9.37,39.91-14s26.64-9.24,40-13.76l20-6.77c6.7-2.21,13.38-4.46,20.09-6.63l.11.3c-6.54,2.66-13.1,5.22-19.65,7.84l-19.7,7.7c-13.14,5.12-26.33,10.1-39.49,15.16s-26.35,10-39.57,14.93c-6.62,2.41-13.23,4.87-19.9,7.16l-10,3.5c-3.32,1.21-6.67,2.3-10.52,2Z" style="fill:#fff"></path><path d="M249.68,233c2.26-3.12,5.25-5,8.31-6.75l9.09-5.4c6-3.63,12.17-7.11,18.28-10.63,12.24-7,24.56-13.85,36.87-20.72s24.63-13.73,37-20.5l18.56-10.15c6.21-3.33,12.4-6.71,18.63-10l.16.27c-6,3.75-12,7.42-18,11.14l-18.06,11c-12,7.32-24.18,14.52-36.26,21.79s-24.2,14.46-36.38,21.57c-6.1,3.53-12.18,7.09-18.35,10.51l-9.21,5.18c-3.06,1.76-6.17,3.42-10,3.82Z" style="fill:#fff"></path><path d="M249.58,233c1.69-3.46,4.31-5.82,7-8.09l8-6.89c5.33-4.62,10.76-9.12,16.16-13.65,10.84-9,21.78-17.9,32.71-26.81s21.87-17.79,32.88-26.61l16.51-13.21c5.54-4.37,11.05-8.77,16.62-13.1l.2.24c-5.23,4.73-10.52,9.39-15.78,14.09L348,153c-10.6,9.31-21.29,18.5-31.92,27.76S294.78,199.15,284,208.27c-5.4,4.53-10.77,9.1-16.25,13.53l-8.18,6.71c-2.7,2.26-5.47,4.43-9.19,5.49Z" style="fill:#fff"></path><path d="M249.51,233.09c1.06-3.71,3.23-6.48,5.49-9.18l6.7-8.18c4.44-5.48,9-10.85,13.54-16.25,9.11-10.75,18.34-21.41,27.56-32.08s18.45-21.32,27.76-31.92l14-15.88c4.7-5.26,9.36-10.55,14.09-15.78l.24.2c-4.33,5.57-8.73,11.08-13.1,16.62l-13.21,16.51c-8.82,11-17.75,21.92-26.61,32.88s-17.8,21.87-26.81,32.71c-4.53,5.4-9,10.83-13.65,16.15l-6.89,8c-2.27,2.7-4.63,5.33-8.1,7Z" style="fill:#fff"></path><path d="M249.44,233.19c.4-3.84,2.06-7,3.82-10l5.18-9.21c3.42-6.17,7-12.25,10.51-18.35,7.11-12.18,14.35-24.28,21.57-36.38S305,135,312.31,123l11-18.06c3.72-6,7.39-12,11.14-18l.27.16c-3.3,6.23-6.68,12.42-10,18.63l-10.15,18.56c-6.77,12.37-13.67,24.67-20.5,37s-13.73,24.63-20.72,36.87c-3.52,6.11-7,12.23-10.63,18.28l-5.4,9.09c-1.76,3.06-3.63,6-6.75,8.31Z" style="fill:#fff"></path><path d="M249.39,233.29c-.27-3.85.82-7.2,2-10.52l3.5-10c2.29-6.67,4.75-13.28,7.16-19.9C267,179.68,272,166.51,277,153.33s10-26.35,15.16-39.49l7.7-19.7c2.61-6.55,5.18-13.11,7.84-19.65l.3.11c-2.17,6.71-4.42,13.39-6.63,20.09l-6.77,20c-4.52,13.36-9.18,26.66-13.76,40s-9.24,26.64-14,39.91c-2.41,6.62-4.78,13.26-7.3,19.84l-3.73,9.89c-1.21,3.32-2.53,6.59-5.21,9.36Z" style="fill:#fff"></path><path d="M249.36,233.4c-.93-3.75-.44-7.24.17-10.71l1.72-10.43c1.1-7,2.37-13.9,3.59-20.84,2.52-13.87,5.19-27.72,7.83-41.56s5.32-27.7,8.08-41.52l4.16-20.74c1.44-6.9,2.83-13.82,4.31-20.71l.31,0c-1,7-2,14-3,20.94l-3.19,20.91c-2.13,13.94-4.41,27.85-6.61,41.78s-4.48,27.84-6.86,41.73c-1.22,6.94-2.4,13.89-3.74,20.81l-2,10.39c-.61,3.47-1.34,6.92-3.5,10.12Z" style="fill:#fff"></path></g></g></g><g id="freepik--sparkles--inject-15"><g id="freepik--Shine--inject-15"><path d="M97.9,226.4c0,2.22-.06,4.35-3.26,4.85,3.38,0,3.13,2.09,3.29,4.76.09-2.67.33-4.59,3-4.71C98.17,230.84,98.24,229.58,97.9,226.4Z" style="fill:#BA68C8"></path><path d="M45.25,59.62c-.41,8.42-.73,12.51-9,13.36,8.16.87,8.53,5.67,9,13,.25-7.32,1.16-12.15,8.17-13C46.27,72.31,45.7,68.06,45.25,59.62Z" style="fill:#BA68C8"></path><path d="M66.79,88.38c0,3.75-.09,7.35-5.5,8.19,5.71-.07,5.28,3.53,5.56,8,.15-4.51.55-7.75,5-8C67.25,95.89,67.37,93.75,66.79,88.38Z" style="fill:#455a64"></path><path d="M84.33,208.61c0,4.51-.12,8.84-6.62,9.85,6.87-.09,6.35,4.24,6.69,9.67.18-5.43.66-9.32,6-9.58C84.87,217.64,85,215.07,84.33,208.61Z" style="fill:#455a64"></path><path d="M115.73,172.65c.06,5.32-.13,10.44-7.82,11.64,8.12-.11,7.51,5,7.91,11.42.21-6.41.78-11,7.11-11.32C116.38,183.31,116.55,180.28,115.73,172.65Z" style="fill:#ebebeb"></path><path d="M452.74,84.38c.06,5.32-.13,10.44-7.82,11.64,8.12-.11,7.51,5,7.9,11.41.22-6.41.78-11,7.11-11.31C453.39,95,453.56,92,452.74,84.38Z" style="fill:#ebebeb"></path><path d="M116.5,273.77c0-3.91-.1-7.68-5.75-8.55,6,.08,5.52-3.69,5.81-8.4.16,4.71.58,8.09,5.23,8.32C117,265.93,117.1,268.16,116.5,273.77Z" style="fill:#e0e0e0"></path><path d="M383.58,260.28c0,2.21.05,4.35,3.26,4.84-3.39,0-3.13,2.09-3.3,4.76-.09-2.67-.32-4.58-3-4.71C383.31,264.72,383.24,263.45,383.58,260.28Z" style="fill:#455a64"></path><path d="M326.67,148.45c0,4.46.11,8.74,6.55,9.74-6.8-.09-6.28,4.2-6.62,9.56-.18-5.36-.65-9.21-6-9.47C326.13,157.38,326,154.84,326.67,148.45Z" style="fill:#ebebeb"></path><path d="M391.54,179.18c0,2.77.07,5.44,4.08,6.06-4.23-.05-3.91,2.62-4.12,6-.11-3.34-.41-5.74-3.71-5.9C391.2,184.73,391.11,183.15,391.54,179.18Z" style="fill:#BA68C8"></path><path d="M161.48,164.36c0,2.77.07,5.44,4.07,6.06-4.23-.06-3.91,2.61-4.12,6-.11-3.34-.4-5.73-3.7-5.89C161.14,169.91,161.05,168.33,161.48,164.36Z" style="fill:#BA68C8"></path><path d="M342.06,140c0,2.77.07,5.44,4.08,6.07-4.23-.06-3.91,2.61-4.12,5.95-.11-3.34-.41-5.74-3.7-5.9C341.73,145.58,341.64,144,342.06,140Z" style="fill:#BA68C8"></path><path d="M433.57,102.25c0,2.77.07,5.44,4.08,6.06-4.23-.06-3.91,2.61-4.12,6-.11-3.34-.41-5.74-3.71-5.89C433.23,107.8,433.14,106.22,433.57,102.25Z" style="fill:#BA68C8"></path><path d="M401.29,243.89c-.05,4.5.11,8.83,6.61,9.85-6.87-.1-6.35,4.24-6.69,9.66-.18-5.42-.66-9.32-6-9.57C400.74,252.91,400.59,250.34,401.29,243.89Z" style="fill:#BA68C8"></path><path d="M408.46,195c0,3.22.08,6.31,4.73,7-4.91-.07-4.54,3-4.78,6.9-.13-3.87-.47-6.66-4.3-6.84C408.07,201.44,408,199.6,408.46,195Z" style="fill:#ebebeb"></path><path d="M182.17,140.82c0,3.22.08,6.32,4.73,7-4.91-.06-4.54,3-4.78,6.91-.13-3.88-.47-6.66-4.3-6.84C181.78,147.27,181.67,145.44,182.17,140.82Z" style="fill:#ebebeb"></path><path d="M87.91,41.15c.39,5.28.8,9.07,6.67,9.92-5.8.23-6.33,4.2-6.67,9.65-.19-5.45-.7-9.39-6.07-9.65C87.39,50.15,87.63,46.37,87.91,41.15Z" style="fill:#ebebeb"></path><path d="M418.63,67.91c-.07-6.41-.43-13.88,9.42-14-9.78.13-9-6-9.52-13.75-.26,7.71-.94,13.25-8.56,13.62C417.85,55.07,417.65,58.72,418.63,67.91Z" style="fill:#455a64"></path><path d="M467.17,215.3c-.05-4.62.11-9.06,6.78-10.09-7,.09-6.51-4.34-6.85-9.9-.19,5.56-.68,9.54-6.17,9.81C466.61,206.05,466.46,208.69,467.17,215.3Z" style="fill:#ebebeb"></path><path d="M36.87,215.69c0-4.61.12-9.05,6.78-10.08-7,.09-6.51-4.35-6.85-9.9-.19,5.55-.68,9.54-6.16,9.8C36.31,206.45,36.16,209.08,36.87,215.69Z" style="fill:#ebebeb"></path></g></g><g id="freepik--Gift--inject-15"><g id="freepik--gift-box--inject-15"><g id="freepik--Box--inject-15"><polygon points="250 355.5 250 234.9 360.97 298.97 256.53 359.27 250 355.5" style="fill:#BA68C8"></polygon><polygon points="250 355.5 250 234.9 139.03 298.97 243.47 359.27 250 355.5" style="fill:#BA68C8"></polygon><polygon points="250 355.5 250 234.9 139.03 298.97 243.47 359.27 250 355.5" style="opacity:0.1"></polygon><polygon points="250 363.04 243.47 359.27 250 355.5 256.53 359.27 250 363.04" style="fill:#BA68C8"></polygon><polygon points="250 363.04 243.47 359.27 250 355.5 256.53 359.27 250 363.04" style="opacity:0.45"></polygon><path d="M170.73,299.5a22,22,0,0,1,3.09.13,17.7,17.7,0,0,1,10.83,5.3,9.24,9.24,0,0,1,5.8-6.16,9.36,9.36,0,0,1,7.86.21,15.17,15.17,0,0,1,3.45-13,13.92,13.92,0,0,1,22.2,1.23c-.58-2.78,1-5.7,3.29-7.36a15,15,0,0,1,8.07-2.4c6.32-.31,13.66,2.31,15.44,8.37a19.66,19.66,0,0,1,34.78-2.87,11.07,11.07,0,0,1,13.6,14c6.36-3.6,15.7,1.17,16.5,8.43A19.11,19.11,0,0,1,344.92,312c4.48,9.4.69,20.53-3.74,30a91.91,91.91,0,0,1-8.08,14.4c-11.84,16.53-31.91,25.43-51.93,28.95a133.81,133.81,0,0,1-92-17.4c-12.45-7.6-31.87-19.18-36.49-33C148.65,322.7,153.81,300.15,170.73,299.5Z" style="fill:#fafafa"></path><polygon points="250 468.57 250 363.04 360.97 298.97 347.92 412.04 250 468.57" style="fill:#BA68C8"></polygon><polygon points="250 468.57 250 363.04 360.97 298.97 347.92 412.04 250 468.57" style="fill:#fff;opacity:0.45"></polygon><polygon points="317.64 323.99 298.31 335.06 296.53 441.71 313.06 432.16 317.64 323.99" style="fill:#ebebeb"></polygon><polygon points="250 468.57 250 363.04 139.03 298.97 152.08 412.04 250 468.57" style="fill:#BA68C8"></polygon><polygon points="250 468.57 250 363.04 139.03 298.97 152.08 412.04 250 468.57" style="fill:#fff;opacity:0.30000000000000004"></polygon><polygon points="182.36 323.99 201.69 335.06 203.47 441.71 186.94 432.16 182.36 323.99" style="fill:#ebebeb"></polygon><polygon points="182.36 323.99 201.69 335.06 203.47 441.71 186.94 432.16 182.36 323.99" style="opacity:0.1"></polygon></g><g id="freepik--gift--inject-15"><g id="freepik--gift--inject-15"><polygon points="368.98 213.39 368.98 240.43 317.64 270.05 298.32 281.19 294.59 283.35 250 309.11 250 282.06 298.32 254.17 313.61 245.35 317.64 243.03 317.64 243 368.98 213.39" style="fill:#BA68C8"></polygon><g style="opacity:0.45"><polygon points="368.98 213.39 368.98 240.43 317.64 270.05 298.32 281.19 294.59 283.35 250 309.11 250 282.06 298.32 254.17 313.61 245.35 317.64 243.03 317.64 243 368.98 213.39" style="fill:#fff"></polygon></g><path d="M201.68,254.17l-16.23-9.36L182.36,243v0L131,213.39v27l3.08,1.78,48.25,27.84,19.32,11.16L250,309.11V282.06Z" style="fill:#BA68C8"></path><path d="M201.68,254.17l-16.23-9.36L182.36,243v0L131,213.39v27l3.08,1.78,48.25,27.84,19.32,11.16L250,309.11V282.06Z" style="fill:#fff;opacity:0.30000000000000004"></path><polygon points="131.02 213.38 250 144.69 368.97 213.38 250 282.07 131.02 213.38" style="fill:#BA68C8"></polygon><g style="opacity:0.6000000000000001"><polygon points="131.02 213.38 250 144.69 368.97 213.38 250 282.07 131.02 213.38" style="fill:#fff"></polygon></g><polygon points="201.68 254.17 201.68 281.21 182.36 270.05 182.36 243 201.68 254.17" style="fill:#ebebeb"></polygon><polygon points="201.68 254.17 201.68 281.21 182.36 270.05 182.36 243 201.68 254.17" style="fill:#BA68C8"></polygon><polygon points="201.68 254.17 201.68 281.21 182.36 270.05 182.36 243 201.68 254.17" style="fill:#e0e0e0"></polygon><polygon points="201.68 254.17 201.68 281.21 182.36 270.05 182.36 243 201.68 254.17" style="opacity:0.1"></polygon><polygon points="317.64 243 317.64 270.05 298.32 281.19 298.32 254.17 309.67 247.61 317.64 243" style="fill:#BA68C8"></polygon><polygon points="317.64 243 317.64 270.05 298.32 281.19 298.32 254.17 309.67 247.61 317.64 243" style="fill:#ebebeb"></polygon><polygon points="182.35 243.02 301.32 174.33 320.65 185.49 201.68 254.17 182.35 243.02" style="fill:#fafafa"></polygon><polygon points="248.41 227.19 229.09 216.03 248.41 204.88 267.74 216.03 248.41 227.19" style="opacity:0.1"></polygon><polygon points="298.31 254.17 179.34 185.49 198.67 174.33 317.64 243.02 298.31 254.17" style="fill:#fafafa"></polygon></g><g id="freepik--Bow--inject-15"><path d="M300.87,179.35c-1.43,7.92-11.71,31.24-47.85,35.51l-3.85-3.05s41.59-12.63,30.6-49.1Z" style="fill:#e0e0e0"></path><path d="M249.12,219.36s-1.11-22.3,6.7-35.89,23.95-20.76,23.95-20.76a52.28,52.28,0,0,1,21.1,16.64,68.44,68.44,0,0,0-28.78,8.85C258.25,196.43,253,214.86,253,214.86Z" style="fill:#ebebeb"></path><path d="M272.43,188l-15.07-7a47.56,47.56,0,0,1,7.89-8.73l19.94,10.13A62.49,62.49,0,0,0,272.43,188Z" style="fill:#fafafa"></path><path d="M304.6,220.27s-24.06,7.71-55.48-.91l2.12-4.41s16.26,2,27.51-1.36,20.15-20.31,20.15-20.31Z" style="fill:#e0e0e0"></path><path d="M249.12,219.36s0-6.13,8-14.56c10.57-11,32.23-12.12,41.75-11.52a19.57,19.57,0,0,1,7.9,11.85c1.44,5.92-2.2,15.14-2.2,15.14a35.48,35.48,0,0,0-26-11.7c-15.89-.14-24.44,8.94-24.44,8.94Z" style="fill:#ebebeb"></path><path d="M280.78,194.31a82.61,82.61,0,0,1,10.79-1.07,21.48,21.48,0,0,1,6,21.08A36.09,36.09,0,0,0,286,209.5,25.14,25.14,0,0,0,280.78,194.31Z" style="fill:#fafafa"></path><path d="M284.84,255s-15-1.79-24.46-12.53a51.86,51.86,0,0,1-12-23.48l4.61-4.75s4.81,12.6,18,18.35c10.67,4.67,30.54,4.62,30.54,4.62Z" style="fill:#e0e0e0"></path><path d="M248.42,219l4.61-4.75s17.83-3.56,27.45,0,20.84,18.41,21,23c-2.48,8.29-8.25,14.06-16.68,17.79,0,0,.92-16.21-11.44-25.71A50.31,50.31,0,0,0,248.42,219Z" style="fill:#ebebeb"></path><path d="M267,225.18l15.66-9.82a39.07,39.07,0,0,1,9.45,7.42l-15.4,9.61a25.1,25.1,0,0,0-3.32-3.07A50.34,50.34,0,0,0,267,225.18Z" style="fill:#fafafa"></path><path d="M206.88,181.83c-.67,4.31,3.06,16,13.87,23.23s28.54,9.28,28.54,9.28l2.43-1.63s-18-10.09-24.15-19.84-2.81-26-2.81-26Z" style="fill:#e0e0e0"></path><path d="M249.29,214.34s-5.17-15.16-18.69-23.77-23.72-8.74-23.72-8.74a30.25,30.25,0,0,1,17.88-15s15.34,8,21.68,21.16a53.19,53.19,0,0,1,5.28,24.71Z" style="fill:#ebebeb"></path><path d="M223.76,186.79a56.29,56.29,0,0,0-9.16-3.54,47.52,47.52,0,0,1,16.13-12.61,60.14,60.14,0,0,1,9.24,8.09A35.46,35.46,0,0,0,223.76,186.79Z" style="fill:#fafafa"></path><path d="M193.28,210.45c5.46,6.66,23.72,17.28,54.22,6.36l1.73-3.72s-17.55,2.25-32.43-4.44-16.44-16.58-16.44-16.58Z" style="fill:#e0e0e0"></path><path d="M249.23,213.09s-7.35-13.36-22.41-18.78-26.46-2.24-26.46-2.24-8.8,7.64-7.08,18.38a44.5,44.5,0,0,1,25.5-5.17c14.86,1.41,26.7,7.5,28.72,11.53Z" style="fill:#ebebeb"></path><path d="M208.26,205.55a45.55,45.55,0,0,0-10.45,2.76,32.42,32.42,0,0,1,9.42-17.11,50.8,50.8,0,0,1,6.65.22C210.69,195.05,209.07,200.91,208.26,205.55Z" style="fill:#fafafa"></path><path d="M216.13,254.23c7.78-.2,31.5-11.95,33-35.29l-2.89-5.44s-5.08,13.14-15.72,19.55-26.62,7.1-26.62,7.1Z" style="fill:#e0e0e0"></path><path d="M249.23,213.09s-13.84.36-23.18,4.54C209.57,225,204.27,233,203.88,240.15a27.32,27.32,0,0,0,12.25,14.08s6.05-17.61,14.16-25.28c10.83-10.25,18.82-10,18.82-10Z" style="fill:#ebebeb"></path><path d="M218,249.43A52.91,52.91,0,0,1,204.75,236c1.1-3.3,3.36-6.7,7.42-10.09A33.44,33.44,0,0,0,227,232.78C223,238,219.86,244.88,218,249.43Z" style="fill:#fafafa"></path></g><path d="M256.86,207.34c-2.6-3.24.1-11.91,5.84-16.09,7.73-5.63,17.67-5.21,17.67-5.21a33.54,33.54,0,0,1-6.26,17.25C268.17,211.09,259.15,210.18,256.86,207.34Z" style="fill:#37474f"></path><path d="M256.86,207.34c-2.6-3.24.1-11.91,5.84-16.09,7.73-5.63,17.67-5.21,17.67-5.21S270.34,203,256.86,207.34Z" style="fill:#455a64"></path><path d="M242.42,210.15c-2.58,3.24-11.64,2.53-17-2.14-7.2-6.3-9-16.09-9-16.09a33.53,33.53,0,0,1,18.2,2.3C243.58,198.29,244.68,207.29,242.42,210.15Z" style="fill:#37474f"></path><path d="M242.42,210.15c-2.58,3.24-11.64,2.53-17-2.14-7.2-6.3-9-16.09-9-16.09S235.22,198,242.42,210.15Z" style="fill:#455a64"></path><g id="freepik--Cranberry--inject-15"><path d="M247.62,221.23a4.83,4.83,0,0,0,1.22-1,7.67,7.67,0,0,0,.74-1,5.18,5.18,0,1,0-2,2Z" style="fill:#BA68C8"></path><path d="M241.56,215c-.49,1,.55,1.71,2.11,1.13s2.75-1.9,1.44-2.84c2.44-.32,5.28,2.69,4.73,5.41a5.17,5.17,0,1,0-9.56.09A3.63,3.63,0,0,1,241.56,215Z" style="opacity:0.15"></path><path d="M241.57,219.36a1,1,0,0,1,.35-1.05c.48-.33,1.12,0,1.67.19a6.55,6.55,0,0,0,4.43-.12,1.77,1.77,0,0,1,.55-.13.48.48,0,0,1,.46.27.86.86,0,0,1,0,.57,3,3,0,0,1-.78,1,5.13,5.13,0,0,1-3,1.17,4.14,4.14,0,0,1-3-.95A2,2,0,0,1,241.57,219.36Z" style="fill:#fff;opacity:0.2"></path><path d="M243.29,218.94a1.24,1.24,0,0,0-.6-.26.74.74,0,0,0-.39,0c-1.28.52,1.17,2.69,1.54,1.49a.86.86,0,0,0-.06-.63A1.44,1.44,0,0,0,243.29,218.94Z" style="fill:#fff;opacity:0.2"></path></g><g id="freepik--cranberry--inject-15"><path d="M259,219.64a5.34,5.34,0,0,0,1.23-1,7.44,7.44,0,0,0,.74-1,5.18,5.18,0,1,0-2,2Z" style="fill:#BA68C8"></path><path d="M253,213.35c-.5,1,.53,1.71,2.1,1.14s2.76-1.89,1.45-2.83c2.45-.32,5.27,2.71,4.7,5.43a5.11,5.11,0,0,0-.29-4.5,5.17,5.17,0,0,0-9.26,4.54A3.61,3.61,0,0,1,253,213.35Z" style="opacity:0.15"></path><path d="M253,217.73a1,1,0,0,1,.34-1c.49-.33,1.13,0,1.68.19a6.55,6.55,0,0,0,4.43-.09,1.77,1.77,0,0,1,.55-.13.54.54,0,0,1,.46.27.86.86,0,0,1,0,.57,3.18,3.18,0,0,1-.78,1,5.16,5.16,0,0,1-3,1.15,4.15,4.15,0,0,1-3-1A1.9,1.9,0,0,1,253,217.73Z" style="fill:#fff;opacity:0.2"></path><path d="M254.67,217.32a1.26,1.26,0,0,0-.59-.26.78.78,0,0,0-.4,0c-1.28.51,1.16,2.69,1.54,1.49a.87.87,0,0,0-.06-.63A1.44,1.44,0,0,0,254.67,217.32Z" style="fill:#fff;opacity:0.2"></path></g><g id="freepik--cranberry--inject-15"><path d="M252.37,210.31a5.07,5.07,0,0,0,1.22-1,7,7,0,0,0,.74-1,5.17,5.17,0,1,0-2,2Z" style="fill:#BA68C8"></path><path d="M246.31,204.05c-.49,1,.55,1.71,2.11,1.13s2.75-1.91,1.44-2.84c2.44-.33,5.28,2.68,4.73,5.41a5.17,5.17,0,1,0-9.56.09A3.63,3.63,0,0,1,246.31,204.05Z" style="opacity:0.15"></path><path d="M246.33,208.44a1,1,0,0,1,.34-1.05c.48-.33,1.12,0,1.67.18a6.44,6.44,0,0,0,4.43-.12,1.75,1.75,0,0,1,.55-.12.49.49,0,0,1,.46.26.8.8,0,0,1,0,.57,3.08,3.08,0,0,1-.78,1,5.19,5.19,0,0,1-3,1.17,4.23,4.23,0,0,1-3-1A1.94,1.94,0,0,1,246.33,208.44Z" style="fill:#fff;opacity:0.2"></path><path d="M248,208a1.28,1.28,0,0,0-.6-.25.74.74,0,0,0-.39,0c-1.28.51,1.17,2.69,1.55,1.48a.89.89,0,0,0-.07-.62A1.47,1.47,0,0,0,248,208Z" style="fill:#fff;opacity:0.2"></path></g></g></g></g></svg>